G04 #@! TF.GenerationSoftware,KiCad,Pcbnew,(6.0.11-0)*
G04 #@! TF.CreationDate,2023-06-19T16:15:23+02:00*
G04 #@! TF.ProjectId,ft4232h_mini_module,66743432-3332-4685-9f6d-696e695f6d6f,REV*
G04 #@! TF.SameCoordinates,Original*
G04 #@! TF.FileFunction,Copper,L2,Bot*
G04 #@! TF.FilePolarity,Positive*
%FSLAX46Y46*%
G04 Gerber Fmt 4.6, Leading zero omitted, Abs format (unit mm)*
G04 Created by KiCad (PCBNEW (6.0.11-0)) date 2023-06-19 16:15:23*
%MOMM*%
%LPD*%
G01*
G04 APERTURE LIST*
G04 #@! TA.AperFunction,ComponentPad*
%ADD10C,1.562100*%
G04 #@! TD*
G04 #@! TA.AperFunction,ComponentPad*
%ADD11R,1.562100X1.562100*%
G04 #@! TD*
G04 #@! TA.AperFunction,ComponentPad*
%ADD12O,1.700000X1.700000*%
G04 #@! TD*
G04 #@! TA.AperFunction,ComponentPad*
%ADD13R,1.700000X1.700000*%
G04 #@! TD*
G04 #@! TA.AperFunction,ViaPad*
%ADD14C,0.600000*%
G04 #@! TD*
G04 #@! TA.AperFunction,ViaPad*
%ADD15C,0.800000*%
G04 #@! TD*
G04 #@! TA.AperFunction,Conductor*
%ADD16C,0.152400*%
G04 #@! TD*
G04 #@! TA.AperFunction,Conductor*
%ADD17C,0.127000*%
G04 #@! TD*
G04 #@! TA.AperFunction,Conductor*
%ADD18C,0.254000*%
G04 #@! TD*
G04 APERTURE END LIST*
D10*
X132080000Y-90155000D03*
X132080000Y-87615000D03*
X129540000Y-90155000D03*
X129540000Y-87615000D03*
X127000000Y-90155000D03*
X127000000Y-87615000D03*
X124460000Y-90155000D03*
X124460000Y-87615000D03*
X121920000Y-90155000D03*
X121920000Y-87615000D03*
X119380000Y-90155000D03*
X119380000Y-87615000D03*
X116840000Y-90155000D03*
X116840000Y-87615000D03*
X114300000Y-90155000D03*
X114300000Y-87615000D03*
X111760000Y-90155000D03*
X111760000Y-87615000D03*
X109220000Y-90155000D03*
X109220000Y-87615000D03*
X106680000Y-90155000D03*
X106680000Y-87615000D03*
X104140000Y-90155000D03*
X104140000Y-87615000D03*
X101600000Y-90155000D03*
D11*
X101600000Y-87615000D03*
D10*
X132080000Y-113045000D03*
X132080000Y-110505000D03*
X129540000Y-113045000D03*
X129540000Y-110505000D03*
X127000000Y-113045000D03*
X127000000Y-110505000D03*
X124460000Y-113045000D03*
X124460000Y-110505000D03*
X121920000Y-113045000D03*
X121920000Y-110505000D03*
X119380000Y-113045000D03*
X119380000Y-110505000D03*
X116840000Y-113045000D03*
X116840000Y-110505000D03*
X114300000Y-113045000D03*
X114300000Y-110505000D03*
X111760000Y-113045000D03*
X111760000Y-110505000D03*
X109220000Y-113045000D03*
X109220000Y-110505000D03*
X106680000Y-113045000D03*
X106680000Y-110505000D03*
X104140000Y-113045000D03*
X104140000Y-110505000D03*
X101600000Y-113045000D03*
D11*
X101600000Y-110505000D03*
D12*
X193040000Y-109195000D03*
X190500000Y-109195000D03*
X187960000Y-109195000D03*
X185420000Y-109195000D03*
X182880000Y-109195000D03*
X180340000Y-109195000D03*
X177800000Y-109195000D03*
X175260000Y-109195000D03*
X172720000Y-109195000D03*
X170180000Y-109195000D03*
X167640000Y-109195000D03*
X165100000Y-109195000D03*
X162560000Y-109195000D03*
X160020000Y-109195000D03*
X157480000Y-109195000D03*
X154940000Y-109195000D03*
X152400000Y-109195000D03*
X149860000Y-109195000D03*
X147320000Y-109195000D03*
D13*
X144780000Y-109195000D03*
D12*
X193040000Y-91440000D03*
X190500000Y-91440000D03*
X187960000Y-91440000D03*
X185420000Y-91440000D03*
X182880000Y-91440000D03*
X180340000Y-91440000D03*
X177800000Y-91440000D03*
X175260000Y-91440000D03*
X172720000Y-91440000D03*
X170180000Y-91440000D03*
X167640000Y-91440000D03*
X165100000Y-91440000D03*
X162560000Y-91440000D03*
X160020000Y-91440000D03*
X157480000Y-91440000D03*
X154940000Y-91440000D03*
X152400000Y-91440000D03*
X149860000Y-91440000D03*
X147320000Y-91440000D03*
D13*
X144780000Y-91440000D03*
D14*
X110236000Y-92837000D03*
X110871000Y-98425000D03*
D15*
X107569000Y-104775000D03*
D14*
X110871000Y-100965000D03*
X113156250Y-93853750D03*
D15*
X106712725Y-93956391D03*
D14*
X110871000Y-103378000D03*
X110871000Y-102235000D03*
X110617000Y-99695000D03*
D15*
X105664000Y-106045000D03*
X106680000Y-96012000D03*
X139192000Y-100121000D03*
D16*
X110236000Y-92964000D02*
X110236000Y-92837000D01*
D17*
X110617000Y-89012000D02*
X109220000Y-87615000D01*
X113156250Y-93853750D02*
X112020668Y-93853750D01*
X112020668Y-93853750D02*
X110617000Y-92450082D01*
X110617000Y-92450082D02*
X110617000Y-89012000D01*
D16*
X110236000Y-97790000D02*
X110236000Y-92964000D01*
X110871000Y-98425000D02*
X110490000Y-98044000D01*
X110490000Y-98044000D02*
X110236000Y-97790000D01*
D17*
X106680000Y-87615000D02*
X108077000Y-89012000D01*
X108712000Y-91567000D02*
X108712000Y-99689082D01*
X108077000Y-89012000D02*
X108077000Y-90932000D01*
X108077000Y-90932000D02*
X108712000Y-91567000D01*
X111414000Y-102835000D02*
X110871000Y-103378000D01*
X108712000Y-99689082D02*
X110622918Y-101600000D01*
X110622918Y-101600000D02*
X111003918Y-101600000D01*
X111003918Y-101600000D02*
X111414000Y-102010082D01*
X111414000Y-102010082D02*
X111414000Y-102835000D01*
X106680000Y-90155000D02*
X106680000Y-90551000D01*
X106680000Y-90551000D02*
X108204000Y-92075000D01*
X108204000Y-92075000D02*
X108204000Y-100203000D01*
X110236000Y-102235000D02*
X110871000Y-102235000D01*
X108204000Y-100203000D02*
X110236000Y-102235000D01*
X187960000Y-91440000D02*
X180340000Y-99060000D01*
X112903000Y-88758000D02*
X111760000Y-87615000D01*
X180340000Y-99060000D02*
X121539000Y-99060000D01*
X121539000Y-99060000D02*
X112903000Y-90424000D01*
X112903000Y-90424000D02*
X112903000Y-88758000D01*
X116840000Y-87615000D02*
X118110000Y-88885000D01*
X118110000Y-88885000D02*
X118110000Y-90678000D01*
X125349000Y-97917000D02*
X173863000Y-97917000D01*
X173863000Y-97917000D02*
X180340000Y-91440000D01*
X118110000Y-90678000D02*
X125349000Y-97917000D01*
X175260000Y-91440000D02*
X169545000Y-97155000D01*
X127127000Y-97155000D02*
X120650000Y-90678000D01*
X120650000Y-88885000D02*
X119380000Y-87615000D01*
X169545000Y-97155000D02*
X127127000Y-97155000D01*
X120650000Y-90678000D02*
X120650000Y-88885000D01*
X170180000Y-91440000D02*
X165227000Y-96393000D01*
X123190000Y-88885000D02*
X121920000Y-87615000D01*
X165227000Y-96393000D02*
X128905000Y-96393000D01*
X128905000Y-96393000D02*
X123190000Y-90678000D01*
X123190000Y-90678000D02*
X123190000Y-88885000D01*
X165100000Y-91440000D02*
X160909000Y-95631000D01*
X125730000Y-88885000D02*
X124460000Y-87615000D01*
X160909000Y-95631000D02*
X130810000Y-95631000D01*
X130810000Y-95631000D02*
X125730000Y-90551000D01*
X125730000Y-90551000D02*
X125730000Y-88885000D01*
X157480000Y-91440000D02*
X154432000Y-94488000D01*
X154432000Y-94488000D02*
X134747000Y-94488000D01*
X130810000Y-90551000D02*
X130810000Y-88885000D01*
X134747000Y-94488000D02*
X130810000Y-90551000D01*
X130810000Y-88885000D02*
X129540000Y-87615000D01*
X190500000Y-109195000D02*
X182524000Y-101219000D01*
X182524000Y-101219000D02*
X118872000Y-101219000D01*
X118872000Y-101219000D02*
X110490000Y-109601000D01*
X110490000Y-111775000D02*
X109220000Y-113045000D01*
X110490000Y-109601000D02*
X110490000Y-111775000D01*
X185420000Y-109195000D02*
X178206000Y-101981000D01*
X121031000Y-101981000D02*
X113030000Y-109982000D01*
X178206000Y-101981000D02*
X121031000Y-101981000D01*
X113030000Y-109982000D02*
X113030000Y-111775000D01*
X113030000Y-111775000D02*
X111760000Y-113045000D01*
X177800000Y-109195000D02*
X171729000Y-103124000D01*
X171729000Y-103124000D02*
X124841000Y-103124000D01*
X124841000Y-103124000D02*
X118110000Y-109855000D01*
X118110000Y-109855000D02*
X118110000Y-111775000D01*
X118110000Y-111775000D02*
X116840000Y-113045000D01*
X172720000Y-109195000D02*
X167411000Y-103886000D01*
X120650000Y-111775000D02*
X119380000Y-113045000D01*
X167411000Y-103886000D02*
X126746000Y-103886000D01*
X126746000Y-103886000D02*
X120650000Y-109982000D01*
X120650000Y-109982000D02*
X120650000Y-111775000D01*
X167640000Y-109195000D02*
X163093000Y-104648000D01*
X163093000Y-104648000D02*
X128587500Y-104648000D01*
X128587500Y-104648000D02*
X123317000Y-109918500D01*
X123317000Y-109918500D02*
X123317000Y-111648000D01*
X123317000Y-111648000D02*
X121920000Y-113045000D01*
X162560000Y-109195000D02*
X158775000Y-105410000D01*
X130429000Y-105410000D02*
X125730000Y-110109000D01*
X158775000Y-105410000D02*
X130429000Y-105410000D01*
X125730000Y-110109000D02*
X125730000Y-111775000D01*
X125730000Y-111775000D02*
X124460000Y-113045000D01*
X154940000Y-109195000D02*
X152298000Y-106553000D01*
X134239000Y-106553000D02*
X130810000Y-109982000D01*
X152298000Y-106553000D02*
X134239000Y-106553000D01*
X130810000Y-109982000D02*
X130810000Y-111775000D01*
X130810000Y-111775000D02*
X129540000Y-113045000D01*
X132080000Y-110505000D02*
X135651000Y-106934000D01*
X135651000Y-106934000D02*
X150139000Y-106934000D01*
X150139000Y-106934000D02*
X152400000Y-109195000D01*
X157480000Y-109195000D02*
X154457000Y-106172000D01*
X154457000Y-106172000D02*
X133873000Y-106172000D01*
X133873000Y-106172000D02*
X129540000Y-110505000D01*
X160020000Y-109195000D02*
X156616000Y-105791000D01*
X156616000Y-105791000D02*
X131714000Y-105791000D01*
X131714000Y-105791000D02*
X127000000Y-110505000D01*
X165100000Y-109195000D02*
X160934000Y-105029000D01*
X160934000Y-105029000D02*
X129936000Y-105029000D01*
X129936000Y-105029000D02*
X124460000Y-110505000D01*
X170180000Y-109195000D02*
X165252000Y-104267000D01*
X165252000Y-104267000D02*
X128158000Y-104267000D01*
X128158000Y-104267000D02*
X121920000Y-110505000D01*
X175260000Y-109195000D02*
X169570000Y-103505000D01*
X169570000Y-103505000D02*
X126380000Y-103505000D01*
X126380000Y-103505000D02*
X119380000Y-110505000D01*
X180340000Y-109195000D02*
X173863099Y-102718099D01*
X124626901Y-102718099D02*
X116840000Y-110505000D01*
X173863099Y-102718099D02*
X124626901Y-102718099D01*
X182880000Y-109195000D02*
X176047000Y-102362000D01*
X176047000Y-102362000D02*
X122443000Y-102362000D01*
X122443000Y-102362000D02*
X114300000Y-110505000D01*
X187960000Y-109195000D02*
X180365000Y-101600000D01*
X180365000Y-101600000D02*
X120665000Y-101600000D01*
X120665000Y-101600000D02*
X111760000Y-110505000D01*
X121009000Y-99404000D02*
X111760000Y-90155000D01*
D18*
X138983000Y-100330000D02*
X139192000Y-100121000D01*
X111188500Y-104584500D02*
X115443000Y-100330000D01*
D17*
X190500000Y-91440000D02*
X182536000Y-99404000D01*
D18*
X139401000Y-100330000D02*
X139192000Y-100121000D01*
X115443000Y-100330000D02*
X138983000Y-100330000D01*
D17*
X182536000Y-99404000D02*
X121009000Y-99404000D01*
D18*
X193040000Y-100330000D02*
X139401000Y-100330000D01*
D17*
X152400000Y-91440000D02*
X150114000Y-93726000D01*
X150114000Y-93726000D02*
X138176000Y-93726000D01*
X138176000Y-93726000D02*
X132080000Y-87630000D01*
X154940000Y-91440000D02*
X152273000Y-94107000D01*
X152273000Y-94107000D02*
X136017000Y-94107000D01*
X136017000Y-94107000D02*
X132080000Y-90170000D01*
X160020000Y-91440000D02*
X156591000Y-94869000D01*
X156591000Y-94869000D02*
X134254000Y-94869000D01*
X134254000Y-94869000D02*
X129540000Y-90155000D01*
X162560000Y-91440000D02*
X158750000Y-95250000D01*
X132095000Y-95250000D02*
X127000000Y-90155000D01*
X158750000Y-95250000D02*
X132095000Y-95250000D01*
X167640000Y-91440000D02*
X163068000Y-96012000D01*
X163068000Y-96012000D02*
X130317000Y-96012000D01*
X130317000Y-96012000D02*
X124460000Y-90155000D01*
X172720000Y-91440000D02*
X167386000Y-96774000D01*
X167386000Y-96774000D02*
X128539000Y-96774000D01*
X128539000Y-96774000D02*
X121920000Y-90155000D01*
X177800000Y-91440000D02*
X171704000Y-97536000D01*
X171704000Y-97536000D02*
X126761000Y-97536000D01*
X126761000Y-97536000D02*
X119380000Y-90155000D01*
X182880000Y-91440000D02*
X176022000Y-98298000D01*
X176022000Y-98298000D02*
X124983000Y-98298000D01*
X124983000Y-98298000D02*
X116840000Y-90155000D01*
X185420000Y-91440000D02*
X178181000Y-98679000D01*
X178181000Y-98679000D02*
X122824000Y-98679000D01*
X122824000Y-98679000D02*
X114300000Y-90155000D01*
D18*
X107569000Y-104775000D02*
X105005900Y-104775000D01*
X105005900Y-104775000D02*
X100437950Y-109342950D01*
X100437950Y-109342950D02*
X100437950Y-113525630D01*
X100437950Y-113525630D02*
X101119370Y-114207050D01*
X113137950Y-114207050D02*
X114300000Y-113045000D01*
X101119370Y-114207050D02*
X113137950Y-114207050D01*
X107569000Y-104775000D02*
X105537000Y-102743000D01*
X105537000Y-102743000D02*
X105537000Y-95132116D01*
X105537000Y-95132116D02*
X106712725Y-93956391D01*
X111188500Y-104584500D02*
X109728000Y-106045000D01*
X109728000Y-106045000D02*
X105664000Y-106045000D01*
X106680000Y-107061000D02*
X105664000Y-106045000D01*
X106680000Y-110505000D02*
X106680000Y-107061000D01*
X106680000Y-96012000D02*
X106680000Y-100203000D01*
X106680000Y-100203000D02*
X111061500Y-104584500D01*
X111061500Y-104584500D02*
X111188500Y-104584500D01*
D17*
X113156250Y-98679750D02*
X110871000Y-100965000D01*
X113156250Y-93853750D02*
X113156250Y-98679750D01*
D18*
X106680000Y-96012000D02*
X107696000Y-94996000D01*
X105517950Y-91293950D02*
X105517950Y-88992950D01*
X107696000Y-94996000D02*
X107696000Y-93472000D01*
X107696000Y-93472000D02*
X105517950Y-91293950D01*
X105517950Y-88992950D02*
X104140000Y-87615000D01*
X106712725Y-93956391D02*
X102084391Y-93956391D01*
X100330000Y-86560900D02*
X100330000Y-92202000D01*
X102084391Y-93956391D02*
X100330000Y-92202000D01*
X113137950Y-86452950D02*
X100437950Y-86452950D01*
X100437950Y-86452950D02*
X100330000Y-86560900D01*
X114300000Y-87615000D02*
X113137950Y-86452950D01*
X127000000Y-87615000D02*
X125837950Y-86452950D01*
X115462050Y-86452950D02*
X114300000Y-87615000D01*
X125837950Y-86452950D02*
X115462050Y-86452950D01*
D17*
X109220000Y-90155000D02*
X109220000Y-98298000D01*
X109220000Y-98298000D02*
X110617000Y-99695000D01*
D18*
X106680000Y-110505000D02*
X101600000Y-110505000D01*
X104140000Y-87615000D02*
X101600000Y-87615000D01*
X193040000Y-100330000D02*
X193040000Y-109195000D01*
X193040000Y-91440000D02*
X193040000Y-100330000D01*
M02*
