G04 #@! TF.GenerationSoftware,KiCad,Pcbnew,(6.0.11-0)*
G04 #@! TF.CreationDate,2023-06-19T16:15:23+02:00*
G04 #@! TF.ProjectId,ft4232h_mini_module,66743432-3332-4685-9f6d-696e695f6d6f,REV*
G04 #@! TF.SameCoordinates,Original*
G04 #@! TF.FileFunction,Paste,Top*
G04 #@! TF.FilePolarity,Positive*
%FSLAX46Y46*%
G04 Gerber Fmt 4.6, Leading zero omitted, Abs format (unit mm)*
G04 Created by KiCad (PCBNEW (6.0.11-0)) date 2023-06-19 16:15:23*
%MOMM*%
%LPD*%
G01*
G04 APERTURE LIST*
G04 Aperture macros list*
%AMRoundRect*
0 Rectangle with rounded corners*
0 $1 Rounding radius*
0 $2 $3 $4 $5 $6 $7 $8 $9 X,Y pos of 4 corners*
0 Add a 4 corners polygon primitive as box body*
4,1,4,$2,$3,$4,$5,$6,$7,$8,$9,$2,$3,0*
0 Add four circle primitives for the rounded corners*
1,1,$1+$1,$2,$3*
1,1,$1+$1,$4,$5*
1,1,$1+$1,$6,$7*
1,1,$1+$1,$8,$9*
0 Add four rect primitives between the rounded corners*
20,1,$1+$1,$2,$3,$4,$5,0*
20,1,$1+$1,$4,$5,$6,$7,0*
20,1,$1+$1,$6,$7,$8,$9,0*
20,1,$1+$1,$8,$9,$2,$3,0*%
G04 Aperture macros list end*
%ADD10RoundRect,0.150000X-0.825000X-0.150000X0.825000X-0.150000X0.825000X0.150000X-0.825000X0.150000X0*%
%ADD11RoundRect,0.250000X-0.350000X-0.450000X0.350000X-0.450000X0.350000X0.450000X-0.350000X0.450000X0*%
%ADD12RoundRect,0.250000X0.450000X-0.350000X0.450000X0.350000X-0.450000X0.350000X-0.450000X-0.350000X0*%
%ADD13RoundRect,0.250000X0.325000X0.450000X-0.325000X0.450000X-0.325000X-0.450000X0.325000X-0.450000X0*%
%ADD14RoundRect,0.250000X-0.337500X-0.475000X0.337500X-0.475000X0.337500X0.475000X-0.337500X0.475000X0*%
G04 APERTURE END LIST*
D10*
X104205000Y-97155000D03*
X104205000Y-98425000D03*
X104205000Y-99695000D03*
X104205000Y-100965000D03*
X104205000Y-102235000D03*
X104205000Y-103505000D03*
X104205000Y-104775000D03*
X104205000Y-106045000D03*
X109155000Y-106045000D03*
X109155000Y-104775000D03*
X109155000Y-103505000D03*
X109155000Y-102235000D03*
X109155000Y-100965000D03*
X109155000Y-99695000D03*
X109155000Y-98425000D03*
X109155000Y-97155000D03*
D11*
X118602000Y-107339000D03*
X116602000Y-107339000D03*
X118602000Y-105307000D03*
X116602000Y-105307000D03*
X118602000Y-103275000D03*
X116602000Y-103275000D03*
X118602000Y-101243000D03*
X116602000Y-101243000D03*
X118602000Y-99211000D03*
X116602000Y-99211000D03*
X118602000Y-97179000D03*
X116602000Y-97179000D03*
X116602000Y-95147000D03*
X118602000Y-95147000D03*
X118602000Y-93091000D03*
X116602000Y-93091000D03*
D12*
X111506000Y-93250000D03*
X111506000Y-95250000D03*
D13*
X136135000Y-107823000D03*
X138185000Y-107823000D03*
X136135000Y-105664000D03*
X138185000Y-105664000D03*
X138185000Y-103505000D03*
X136135000Y-103505000D03*
X136135000Y-101346000D03*
X138185000Y-101346000D03*
X136135000Y-99187000D03*
X138185000Y-99187000D03*
X136135000Y-97028000D03*
X138185000Y-97028000D03*
X136135000Y-94869000D03*
X138185000Y-94869000D03*
X136135000Y-92710000D03*
X138185000Y-92710000D03*
D14*
X107717500Y-94960000D03*
X105642500Y-94960000D03*
M02*
