M48
; DRILL file {KiCad (6.0.11-0)} date 2023 June 20, Tuesday 16:53:39
; FORMAT={-:-/ absolute / metric / decimal}
; #@! TF.CreationDate,2023-06-20T16:53:39+02:00
; #@! TF.GenerationSoftware,Kicad,Pcbnew,(6.0.11-0)
; #@! TF.FileFunction,Plated,1,2,PTH
FMAT,2
METRIC
; #@! TA.AperFunction,Plated,PTH,ViaDrill
T1C0.300
; #@! TA.AperFunction,Plated,PTH,ViaDrill
T2C0.400
; #@! TA.AperFunction,Plated,PTH,ComponentDrill
T3C1.000
; #@! TA.AperFunction,Plated,PTH,ComponentDrill
T4C1.041
%
G90
G05
T1
X110.236Y-92.837
X110.617Y-99.695
X110.871Y-98.425
X110.871Y-100.965
X110.871Y-102.235
X110.871Y-103.378
X113.156Y-93.854
T2
X105.664Y-106.045
X106.68Y-96.012
X106.713Y-93.956
X107.569Y-104.775
X139.192Y-100.121
T3
X144.78Y-91.44
X144.78Y-109.195
X147.32Y-91.44
X147.32Y-109.195
X149.86Y-91.44
X149.86Y-109.195
X152.4Y-91.44
X152.4Y-109.195
X154.94Y-91.44
X154.94Y-109.195
X157.48Y-91.44
X157.48Y-109.195
X160.02Y-91.44
X160.02Y-109.195
X162.56Y-91.44
X162.56Y-109.195
X165.1Y-91.44
X165.1Y-109.195
X167.64Y-91.44
X167.64Y-109.195
X170.18Y-91.44
X170.18Y-109.195
X172.72Y-91.44
X172.72Y-109.195
X175.26Y-91.44
X175.26Y-109.195
X177.8Y-91.44
X177.8Y-109.195
X180.34Y-91.44
X180.34Y-109.195
X182.88Y-91.44
X182.88Y-109.195
X185.42Y-91.44
X185.42Y-109.195
X187.96Y-91.44
X187.96Y-109.195
X190.5Y-91.44
X190.5Y-109.195
X193.04Y-91.44
X193.04Y-109.195
T4
X101.6Y-87.615
X101.6Y-90.155
X101.6Y-110.505
X101.6Y-113.045
X104.14Y-87.615
X104.14Y-90.155
X104.14Y-110.505
X104.14Y-113.045
X106.68Y-87.615
X106.68Y-90.155
X106.68Y-110.505
X106.68Y-113.045
X109.22Y-87.615
X109.22Y-90.155
X109.22Y-110.505
X109.22Y-113.045
X111.76Y-87.615
X111.76Y-90.155
X111.76Y-110.505
X111.76Y-113.045
X114.3Y-87.615
X114.3Y-90.155
X114.3Y-110.505
X114.3Y-113.045
X116.84Y-87.615
X116.84Y-90.155
X116.84Y-110.505
X116.84Y-113.045
X119.38Y-87.615
X119.38Y-90.155
X119.38Y-110.505
X119.38Y-113.045
X121.92Y-87.615
X121.92Y-90.155
X121.92Y-110.505
X121.92Y-113.045
X124.46Y-87.615
X124.46Y-90.155
X124.46Y-110.505
X124.46Y-113.045
X127.0Y-87.615
X127.0Y-90.155
X127.0Y-110.505
X127.0Y-113.045
X129.54Y-87.615
X129.54Y-90.155
X129.54Y-110.505
X129.54Y-113.045
X132.08Y-87.615
X132.08Y-90.155
X132.08Y-110.505
X132.08Y-113.045
T0
M30
