G04 #@! TF.GenerationSoftware,KiCad,Pcbnew,(6.0.11-0)*
G04 #@! TF.CreationDate,2023-06-20T16:53:37+02:00*
G04 #@! TF.ProjectId,ft4232h_mini_module,66743432-3332-4685-9f6d-696e695f6d6f,A*
G04 #@! TF.SameCoordinates,Original*
G04 #@! TF.FileFunction,Legend,Top*
G04 #@! TF.FilePolarity,Positive*
%FSLAX46Y46*%
G04 Gerber Fmt 4.6, Leading zero omitted, Abs format (unit mm)*
G04 Created by KiCad (PCBNEW (6.0.11-0)) date 2023-06-20 16:53:37*
%MOMM*%
%LPD*%
G01*
G04 APERTURE LIST*
G04 Aperture macros list*
%AMRoundRect*
0 Rectangle with rounded corners*
0 $1 Rounding radius*
0 $2 $3 $4 $5 $6 $7 $8 $9 X,Y pos of 4 corners*
0 Add a 4 corners polygon primitive as box body*
4,1,4,$2,$3,$4,$5,$6,$7,$8,$9,$2,$3,0*
0 Add four circle primitives for the rounded corners*
1,1,$1+$1,$2,$3*
1,1,$1+$1,$4,$5*
1,1,$1+$1,$6,$7*
1,1,$1+$1,$8,$9*
0 Add four rect primitives between the rounded corners*
20,1,$1+$1,$2,$3,$4,$5,0*
20,1,$1+$1,$4,$5,$6,$7,0*
20,1,$1+$1,$6,$7,$8,$9,0*
20,1,$1+$1,$8,$9,$2,$3,0*%
G04 Aperture macros list end*
%ADD10C,0.150000*%
%ADD11C,0.120000*%
%ADD12C,0.127000*%
%ADD13RoundRect,0.250000X0.325000X0.450000X-0.325000X0.450000X-0.325000X-0.450000X0.325000X-0.450000X0*%
%ADD14RoundRect,0.250000X-0.350000X-0.450000X0.350000X-0.450000X0.350000X0.450000X-0.350000X0.450000X0*%
%ADD15RoundRect,0.250000X-0.337500X-0.475000X0.337500X-0.475000X0.337500X0.475000X-0.337500X0.475000X0*%
%ADD16RoundRect,0.150000X-0.825000X-0.150000X0.825000X-0.150000X0.825000X0.150000X-0.825000X0.150000X0*%
%ADD17R,1.562100X1.562100*%
%ADD18C,1.562100*%
%ADD19RoundRect,0.250000X0.450000X-0.350000X0.450000X0.350000X-0.450000X0.350000X-0.450000X-0.350000X0*%
%ADD20R,1.700000X1.700000*%
%ADD21O,1.700000X1.700000*%
G04 APERTURE END LIST*
D10*
X170180000Y-100076000D02*
X170180000Y-100838000D01*
X170180000Y-96774000D02*
X152400000Y-96774000D01*
X152400000Y-100076000D02*
X170180000Y-100076000D01*
X172720000Y-100076000D02*
X190500000Y-100076000D01*
X190500000Y-96774000D02*
X172720000Y-96774000D01*
X190500000Y-96774000D02*
X190500000Y-96012000D01*
X170180000Y-96774000D02*
X170180000Y-96012000D01*
X152400000Y-100076000D02*
X152400000Y-100838000D01*
X172720000Y-96774000D02*
X172720000Y-96012000D01*
X172720000Y-100076000D02*
X172720000Y-100838000D01*
X190500000Y-100076000D02*
X190500000Y-100838000D01*
X152400000Y-96774000D02*
X152400000Y-96012000D01*
X175712380Y-94950357D02*
X175236190Y-95283690D01*
X175712380Y-95521785D02*
X174712380Y-95521785D01*
X174712380Y-95140833D01*
X174760000Y-95045595D01*
X174807619Y-94997976D01*
X174902857Y-94950357D01*
X175045714Y-94950357D01*
X175140952Y-94997976D01*
X175188571Y-95045595D01*
X175236190Y-95140833D01*
X175236190Y-95521785D01*
X174712380Y-94617023D02*
X175712380Y-93950357D01*
X174712380Y-93950357D02*
X175712380Y-94617023D01*
X175712380Y-93569404D02*
X174712380Y-93569404D01*
X174712380Y-93331309D01*
X174760000Y-93188452D01*
X174855238Y-93093214D01*
X174950476Y-93045595D01*
X175140952Y-92997976D01*
X175283809Y-92997976D01*
X175474285Y-93045595D01*
X175569523Y-93093214D01*
X175664761Y-93188452D01*
X175712380Y-93331309D01*
X175712380Y-93569404D01*
X190857142Y-103486976D02*
X190904761Y-103534595D01*
X190952380Y-103677452D01*
X190952380Y-103772690D01*
X190904761Y-103915547D01*
X190809523Y-104010785D01*
X190714285Y-104058404D01*
X190523809Y-104106023D01*
X190380952Y-104106023D01*
X190190476Y-104058404D01*
X190095238Y-104010785D01*
X190000000Y-103915547D01*
X189952380Y-103772690D01*
X189952380Y-103677452D01*
X190000000Y-103534595D01*
X190047619Y-103486976D01*
X190952380Y-103058404D02*
X189952380Y-103058404D01*
X190952380Y-102486976D02*
X190380952Y-102915547D01*
X189952380Y-102486976D02*
X190523809Y-103058404D01*
X180101904Y-99480666D02*
X180578095Y-99480666D01*
X180006666Y-99766380D02*
X180340000Y-98766380D01*
X180673333Y-99766380D01*
X140035595Y-106116380D02*
X140035595Y-105116380D01*
X140273690Y-105116380D01*
X140416547Y-105164000D01*
X140511785Y-105259238D01*
X140559404Y-105354476D01*
X140607023Y-105544952D01*
X140607023Y-105687809D01*
X140559404Y-105878285D01*
X140511785Y-105973523D01*
X140416547Y-106068761D01*
X140273690Y-106116380D01*
X140035595Y-106116380D01*
X140892738Y-105116380D02*
X141464166Y-105116380D01*
X141178452Y-106116380D02*
X141178452Y-105116380D01*
X141702261Y-106116380D02*
X142226071Y-105449714D01*
X141702261Y-105449714D02*
X142226071Y-106116380D01*
X166810000Y-95807500D02*
X166810000Y-94807500D01*
X168092380Y-95569404D02*
X167092380Y-95569404D01*
X167092380Y-95331309D01*
X167140000Y-95188452D01*
X167235238Y-95093214D01*
X167330476Y-95045595D01*
X167520952Y-94997976D01*
X167663809Y-94997976D01*
X167854285Y-95045595D01*
X167949523Y-95093214D01*
X168044761Y-95188452D01*
X168092380Y-95331309D01*
X168092380Y-95569404D01*
X166810000Y-94807500D02*
X166810000Y-93807500D01*
X167997142Y-93997976D02*
X168044761Y-94045595D01*
X168092380Y-94188452D01*
X168092380Y-94283690D01*
X168044761Y-94426547D01*
X167949523Y-94521785D01*
X167854285Y-94569404D01*
X167663809Y-94617023D01*
X167520952Y-94617023D01*
X167330476Y-94569404D01*
X167235238Y-94521785D01*
X167140000Y-94426547D01*
X167092380Y-94283690D01*
X167092380Y-94188452D01*
X167140000Y-94045595D01*
X167187619Y-93997976D01*
X166810000Y-93807500D02*
X166810000Y-92807500D01*
X168092380Y-93569404D02*
X167092380Y-93569404D01*
X167092380Y-93331309D01*
X167140000Y-93188452D01*
X167235238Y-93093214D01*
X167330476Y-93045595D01*
X167520952Y-92997976D01*
X167663809Y-92997976D01*
X167854285Y-93045595D01*
X167949523Y-93093214D01*
X168044761Y-93188452D01*
X168092380Y-93331309D01*
X168092380Y-93569404D01*
X151900000Y-103534595D02*
X151852380Y-103629833D01*
X151852380Y-103772690D01*
X151900000Y-103915547D01*
X151995238Y-104010785D01*
X152090476Y-104058404D01*
X152280952Y-104106023D01*
X152423809Y-104106023D01*
X152614285Y-104058404D01*
X152709523Y-104010785D01*
X152804761Y-103915547D01*
X152852380Y-103772690D01*
X152852380Y-103677452D01*
X152804761Y-103534595D01*
X152757142Y-103486976D01*
X152423809Y-103486976D01*
X152423809Y-103677452D01*
X152852380Y-103058404D02*
X151852380Y-103058404D01*
X151852380Y-102677452D01*
X151900000Y-102582214D01*
X151947619Y-102534595D01*
X152042857Y-102486976D01*
X152185714Y-102486976D01*
X152280952Y-102534595D01*
X152328571Y-102582214D01*
X152376190Y-102677452D01*
X152376190Y-103058404D01*
X151852380Y-102153642D02*
X151852380Y-101534595D01*
X152233333Y-101867928D01*
X152233333Y-101725071D01*
X152280952Y-101629833D01*
X152328571Y-101582214D01*
X152423809Y-101534595D01*
X152661904Y-101534595D01*
X152757142Y-101582214D01*
X152804761Y-101629833D01*
X152852380Y-101725071D01*
X152852380Y-102010785D01*
X152804761Y-102106023D01*
X152757142Y-102153642D01*
X165552380Y-104058404D02*
X164552380Y-104058404D01*
X164552380Y-103820309D01*
X164600000Y-103677452D01*
X164695238Y-103582214D01*
X164790476Y-103534595D01*
X164980952Y-103486976D01*
X165123809Y-103486976D01*
X165314285Y-103534595D01*
X165409523Y-103582214D01*
X165504761Y-103677452D01*
X165552380Y-103820309D01*
X165552380Y-104058404D01*
X165552380Y-103058404D02*
X164552380Y-103058404D01*
X162917142Y-103486976D02*
X162964761Y-103534595D01*
X163012380Y-103677452D01*
X163012380Y-103772690D01*
X162964761Y-103915547D01*
X162869523Y-104010785D01*
X162774285Y-104058404D01*
X162583809Y-104106023D01*
X162440952Y-104106023D01*
X162250476Y-104058404D01*
X162155238Y-104010785D01*
X162060000Y-103915547D01*
X162012380Y-103772690D01*
X162012380Y-103677452D01*
X162060000Y-103534595D01*
X162107619Y-103486976D01*
X162964761Y-103106023D02*
X163012380Y-102963166D01*
X163012380Y-102725071D01*
X162964761Y-102629833D01*
X162917142Y-102582214D01*
X162821904Y-102534595D01*
X162726666Y-102534595D01*
X162631428Y-102582214D01*
X162583809Y-102629833D01*
X162536190Y-102725071D01*
X162488571Y-102915547D01*
X162440952Y-103010785D01*
X162393333Y-103058404D01*
X162298095Y-103106023D01*
X162202857Y-103106023D01*
X162107619Y-103058404D01*
X162060000Y-103010785D01*
X162012380Y-102915547D01*
X162012380Y-102677452D01*
X162060000Y-102534595D01*
X179444390Y-107869068D02*
X179444390Y-106869068D01*
X180726770Y-107630972D02*
X179726770Y-107630972D01*
X179726770Y-107392877D01*
X179774390Y-107250020D01*
X179869628Y-107154782D01*
X179964866Y-107107163D01*
X180155342Y-107059544D01*
X180298199Y-107059544D01*
X180488675Y-107107163D01*
X180583913Y-107154782D01*
X180679151Y-107250020D01*
X180726770Y-107392877D01*
X180726770Y-107630972D01*
X179444390Y-106869068D02*
X179444390Y-106107163D01*
X179726770Y-106773829D02*
X179726770Y-106202401D01*
X180726770Y-106488115D02*
X179726770Y-106488115D01*
X179444390Y-106107163D02*
X179444390Y-105107163D01*
X180726770Y-105297639D02*
X180250580Y-105630972D01*
X180726770Y-105869068D02*
X179726770Y-105869068D01*
X179726770Y-105488115D01*
X179774390Y-105392877D01*
X179822009Y-105345258D01*
X179917247Y-105297639D01*
X180060104Y-105297639D01*
X180155342Y-105345258D01*
X180202961Y-105392877D01*
X180250580Y-105488115D01*
X180250580Y-105869068D01*
X154440000Y-103534595D02*
X154392380Y-103629833D01*
X154392380Y-103772690D01*
X154440000Y-103915547D01*
X154535238Y-104010785D01*
X154630476Y-104058404D01*
X154820952Y-104106023D01*
X154963809Y-104106023D01*
X155154285Y-104058404D01*
X155249523Y-104010785D01*
X155344761Y-103915547D01*
X155392380Y-103772690D01*
X155392380Y-103677452D01*
X155344761Y-103534595D01*
X155297142Y-103486976D01*
X154963809Y-103486976D01*
X154963809Y-103677452D01*
X155392380Y-103058404D02*
X154392380Y-103058404D01*
X154392380Y-102677452D01*
X154440000Y-102582214D01*
X154487619Y-102534595D01*
X154582857Y-102486976D01*
X154725714Y-102486976D01*
X154820952Y-102534595D01*
X154868571Y-102582214D01*
X154916190Y-102677452D01*
X154916190Y-103058404D01*
X154487619Y-102106023D02*
X154440000Y-102058404D01*
X154392380Y-101963166D01*
X154392380Y-101725071D01*
X154440000Y-101629833D01*
X154487619Y-101582214D01*
X154582857Y-101534595D01*
X154678095Y-101534595D01*
X154820952Y-101582214D01*
X155392380Y-102153642D01*
X155392380Y-101534595D01*
X156584390Y-107869068D02*
X156584390Y-106869068D01*
X157866770Y-107630972D02*
X156866770Y-107630972D01*
X156866770Y-107392877D01*
X156914390Y-107250020D01*
X157009628Y-107154782D01*
X157104866Y-107107163D01*
X157295342Y-107059544D01*
X157438199Y-107059544D01*
X157628675Y-107107163D01*
X157723913Y-107154782D01*
X157819151Y-107250020D01*
X157866770Y-107392877D01*
X157866770Y-107630972D01*
X156584390Y-106869068D02*
X156584390Y-105916687D01*
X157819151Y-106678591D02*
X157866770Y-106535734D01*
X157866770Y-106297639D01*
X157819151Y-106202401D01*
X157771532Y-106154782D01*
X157676294Y-106107163D01*
X157581056Y-106107163D01*
X157485818Y-106154782D01*
X157438199Y-106202401D01*
X157390580Y-106297639D01*
X157342961Y-106488115D01*
X157295342Y-106583353D01*
X157247723Y-106630972D01*
X157152485Y-106678591D01*
X157057247Y-106678591D01*
X156962009Y-106630972D01*
X156914390Y-106583353D01*
X156866770Y-106488115D01*
X156866770Y-106250020D01*
X156914390Y-106107163D01*
X156584390Y-105916687D02*
X156584390Y-104916687D01*
X157866770Y-105107163D02*
X157390580Y-105440496D01*
X157866770Y-105678591D02*
X156866770Y-105678591D01*
X156866770Y-105297639D01*
X156914390Y-105202401D01*
X156962009Y-105154782D01*
X157057247Y-105107163D01*
X157200104Y-105107163D01*
X157295342Y-105154782D01*
X157342961Y-105202401D01*
X157390580Y-105297639D01*
X157390580Y-105678591D01*
X156980000Y-103534595D02*
X156932380Y-103629833D01*
X156932380Y-103772690D01*
X156980000Y-103915547D01*
X157075238Y-104010785D01*
X157170476Y-104058404D01*
X157360952Y-104106023D01*
X157503809Y-104106023D01*
X157694285Y-104058404D01*
X157789523Y-104010785D01*
X157884761Y-103915547D01*
X157932380Y-103772690D01*
X157932380Y-103677452D01*
X157884761Y-103534595D01*
X157837142Y-103486976D01*
X157503809Y-103486976D01*
X157503809Y-103677452D01*
X157932380Y-103058404D02*
X156932380Y-103058404D01*
X156932380Y-102677452D01*
X156980000Y-102582214D01*
X157027619Y-102534595D01*
X157122857Y-102486976D01*
X157265714Y-102486976D01*
X157360952Y-102534595D01*
X157408571Y-102582214D01*
X157456190Y-102677452D01*
X157456190Y-103058404D01*
X157932380Y-101534595D02*
X157932380Y-102106023D01*
X157932380Y-101820309D02*
X156932380Y-101820309D01*
X157075238Y-101915547D01*
X157170476Y-102010785D01*
X157218095Y-102106023D01*
X164204390Y-107869068D02*
X164204390Y-106869068D01*
X165486770Y-107059544D02*
X165010580Y-107392877D01*
X165486770Y-107630972D02*
X164486770Y-107630972D01*
X164486770Y-107250020D01*
X164534390Y-107154782D01*
X164582009Y-107107163D01*
X164677247Y-107059544D01*
X164820104Y-107059544D01*
X164915342Y-107107163D01*
X164962961Y-107154782D01*
X165010580Y-107250020D01*
X165010580Y-107630972D01*
X164204390Y-106869068D02*
X164204390Y-106107163D01*
X164486770Y-106773829D02*
X164486770Y-106202401D01*
X165486770Y-106488115D02*
X164486770Y-106488115D01*
X164204390Y-106107163D02*
X164204390Y-105154782D01*
X165439151Y-105916687D02*
X165486770Y-105773829D01*
X165486770Y-105535734D01*
X165439151Y-105440496D01*
X165391532Y-105392877D01*
X165296294Y-105345258D01*
X165201056Y-105345258D01*
X165105818Y-105392877D01*
X165058199Y-105440496D01*
X165010580Y-105535734D01*
X164962961Y-105726210D01*
X164915342Y-105821448D01*
X164867723Y-105869068D01*
X164772485Y-105916687D01*
X164677247Y-105916687D01*
X164582009Y-105869068D01*
X164534390Y-105821448D01*
X164486770Y-105726210D01*
X164486770Y-105488115D01*
X164534390Y-105345258D01*
X161664390Y-107869068D02*
X161664390Y-106869068D01*
X162851532Y-107059544D02*
X162899151Y-107107163D01*
X162946770Y-107250020D01*
X162946770Y-107345258D01*
X162899151Y-107488115D01*
X162803913Y-107583353D01*
X162708675Y-107630972D01*
X162518199Y-107678591D01*
X162375342Y-107678591D01*
X162184866Y-107630972D01*
X162089628Y-107583353D01*
X161994390Y-107488115D01*
X161946770Y-107345258D01*
X161946770Y-107250020D01*
X161994390Y-107107163D01*
X162042009Y-107059544D01*
X161664390Y-106869068D02*
X161664390Y-106107163D01*
X161946770Y-106773829D02*
X161946770Y-106202401D01*
X162946770Y-106488115D02*
X161946770Y-106488115D01*
X161664390Y-106107163D02*
X161664390Y-105154782D01*
X162899151Y-105916687D02*
X162946770Y-105773829D01*
X162946770Y-105535734D01*
X162899151Y-105440496D01*
X162851532Y-105392877D01*
X162756294Y-105345258D01*
X162661056Y-105345258D01*
X162565818Y-105392877D01*
X162518199Y-105440496D01*
X162470580Y-105535734D01*
X162422961Y-105726210D01*
X162375342Y-105821448D01*
X162327723Y-105869068D01*
X162232485Y-105916687D01*
X162137247Y-105916687D01*
X162042009Y-105869068D01*
X161994390Y-105821448D01*
X161946770Y-105726210D01*
X161946770Y-105488115D01*
X161994390Y-105345258D01*
X179510000Y-95521785D02*
X179510000Y-94521785D01*
X180697142Y-94712261D02*
X180744761Y-94759880D01*
X180792380Y-94902738D01*
X180792380Y-94997976D01*
X180744761Y-95140833D01*
X180649523Y-95236071D01*
X180554285Y-95283690D01*
X180363809Y-95331309D01*
X180220952Y-95331309D01*
X180030476Y-95283690D01*
X179935238Y-95236071D01*
X179840000Y-95140833D01*
X179792380Y-94997976D01*
X179792380Y-94902738D01*
X179840000Y-94759880D01*
X179887619Y-94712261D01*
X179510000Y-94521785D02*
X179510000Y-93759880D01*
X179792380Y-94426547D02*
X179792380Y-93855119D01*
X180792380Y-94140833D02*
X179792380Y-94140833D01*
X179510000Y-93759880D02*
X179510000Y-92807500D01*
X180744761Y-93569404D02*
X180792380Y-93426547D01*
X180792380Y-93188452D01*
X180744761Y-93093214D01*
X180697142Y-93045595D01*
X180601904Y-92997976D01*
X180506666Y-92997976D01*
X180411428Y-93045595D01*
X180363809Y-93093214D01*
X180316190Y-93188452D01*
X180268571Y-93378928D01*
X180220952Y-93474166D01*
X180173333Y-93521785D01*
X180078095Y-93569404D01*
X179982857Y-93569404D01*
X179887619Y-93521785D01*
X179840000Y-93474166D01*
X179792380Y-93378928D01*
X179792380Y-93140833D01*
X179840000Y-92997976D01*
X181984390Y-107869068D02*
X181984390Y-106869068D01*
X183171532Y-107059544D02*
X183219151Y-107107163D01*
X183266770Y-107250020D01*
X183266770Y-107345258D01*
X183219151Y-107488115D01*
X183123913Y-107583353D01*
X183028675Y-107630972D01*
X182838199Y-107678591D01*
X182695342Y-107678591D01*
X182504866Y-107630972D01*
X182409628Y-107583353D01*
X182314390Y-107488115D01*
X182266770Y-107345258D01*
X182266770Y-107250020D01*
X182314390Y-107107163D01*
X182362009Y-107059544D01*
X181984390Y-106869068D02*
X181984390Y-106107163D01*
X182266770Y-106773829D02*
X182266770Y-106202401D01*
X183266770Y-106488115D02*
X182266770Y-106488115D01*
X181984390Y-106107163D02*
X181984390Y-105154782D01*
X183219151Y-105916687D02*
X183266770Y-105773829D01*
X183266770Y-105535734D01*
X183219151Y-105440496D01*
X183171532Y-105392877D01*
X183076294Y-105345258D01*
X182981056Y-105345258D01*
X182885818Y-105392877D01*
X182838199Y-105440496D01*
X182790580Y-105535734D01*
X182742961Y-105726210D01*
X182695342Y-105821448D01*
X182647723Y-105869068D01*
X182552485Y-105916687D01*
X182457247Y-105916687D01*
X182362009Y-105869068D01*
X182314390Y-105821448D01*
X182266770Y-105726210D01*
X182266770Y-105488115D01*
X182314390Y-105345258D01*
X184590000Y-95759880D02*
X184590000Y-94759880D01*
X185872380Y-95521785D02*
X184872380Y-95521785D01*
X184872380Y-95283690D01*
X184920000Y-95140833D01*
X185015238Y-95045595D01*
X185110476Y-94997976D01*
X185300952Y-94950357D01*
X185443809Y-94950357D01*
X185634285Y-94997976D01*
X185729523Y-95045595D01*
X185824761Y-95140833D01*
X185872380Y-95283690D01*
X185872380Y-95521785D01*
X184590000Y-94759880D02*
X184590000Y-93807500D01*
X185824761Y-94569404D02*
X185872380Y-94426547D01*
X185872380Y-94188452D01*
X185824761Y-94093214D01*
X185777142Y-94045595D01*
X185681904Y-93997976D01*
X185586666Y-93997976D01*
X185491428Y-94045595D01*
X185443809Y-94093214D01*
X185396190Y-94188452D01*
X185348571Y-94378928D01*
X185300952Y-94474166D01*
X185253333Y-94521785D01*
X185158095Y-94569404D01*
X185062857Y-94569404D01*
X184967619Y-94521785D01*
X184920000Y-94474166D01*
X184872380Y-94378928D01*
X184872380Y-94140833D01*
X184920000Y-93997976D01*
X184590000Y-93807500D02*
X184590000Y-92807500D01*
X185872380Y-92997976D02*
X185396190Y-93331309D01*
X185872380Y-93569404D02*
X184872380Y-93569404D01*
X184872380Y-93188452D01*
X184920000Y-93093214D01*
X184967619Y-93045595D01*
X185062857Y-92997976D01*
X185205714Y-92997976D01*
X185300952Y-93045595D01*
X185348571Y-93093214D01*
X185396190Y-93188452D01*
X185396190Y-93569404D01*
X185872380Y-104058404D02*
X184872380Y-104058404D01*
X184872380Y-103820309D01*
X184920000Y-103677452D01*
X185015238Y-103582214D01*
X185110476Y-103534595D01*
X185300952Y-103486976D01*
X185443809Y-103486976D01*
X185634285Y-103534595D01*
X185729523Y-103582214D01*
X185824761Y-103677452D01*
X185872380Y-103820309D01*
X185872380Y-104058404D01*
X185872380Y-103058404D02*
X184872380Y-103058404D01*
X156650000Y-95521785D02*
X156650000Y-94521785D01*
X157932380Y-94712261D02*
X157456190Y-95045595D01*
X157932380Y-95283690D02*
X156932380Y-95283690D01*
X156932380Y-94902738D01*
X156980000Y-94807500D01*
X157027619Y-94759880D01*
X157122857Y-94712261D01*
X157265714Y-94712261D01*
X157360952Y-94759880D01*
X157408571Y-94807500D01*
X157456190Y-94902738D01*
X157456190Y-95283690D01*
X156650000Y-94521785D02*
X156650000Y-93759880D01*
X156932380Y-94426547D02*
X156932380Y-93855119D01*
X157932380Y-94140833D02*
X156932380Y-94140833D01*
X156650000Y-93759880D02*
X156650000Y-92807500D01*
X157884761Y-93569404D02*
X157932380Y-93426547D01*
X157932380Y-93188452D01*
X157884761Y-93093214D01*
X157837142Y-93045595D01*
X157741904Y-92997976D01*
X157646666Y-92997976D01*
X157551428Y-93045595D01*
X157503809Y-93093214D01*
X157456190Y-93188452D01*
X157408571Y-93378928D01*
X157360952Y-93474166D01*
X157313333Y-93521785D01*
X157218095Y-93569404D01*
X157122857Y-93569404D01*
X157027619Y-93521785D01*
X156980000Y-93474166D01*
X156932380Y-93378928D01*
X156932380Y-93140833D01*
X156980000Y-92997976D01*
X159520000Y-103534595D02*
X159472380Y-103629833D01*
X159472380Y-103772690D01*
X159520000Y-103915547D01*
X159615238Y-104010785D01*
X159710476Y-104058404D01*
X159900952Y-104106023D01*
X160043809Y-104106023D01*
X160234285Y-104058404D01*
X160329523Y-104010785D01*
X160424761Y-103915547D01*
X160472380Y-103772690D01*
X160472380Y-103677452D01*
X160424761Y-103534595D01*
X160377142Y-103486976D01*
X160043809Y-103486976D01*
X160043809Y-103677452D01*
X160472380Y-103058404D02*
X159472380Y-103058404D01*
X159472380Y-102677452D01*
X159520000Y-102582214D01*
X159567619Y-102534595D01*
X159662857Y-102486976D01*
X159805714Y-102486976D01*
X159900952Y-102534595D01*
X159948571Y-102582214D01*
X159996190Y-102677452D01*
X159996190Y-103058404D01*
X159472380Y-101867928D02*
X159472380Y-101772690D01*
X159520000Y-101677452D01*
X159567619Y-101629833D01*
X159662857Y-101582214D01*
X159853333Y-101534595D01*
X160091428Y-101534595D01*
X160281904Y-101582214D01*
X160377142Y-101629833D01*
X160424761Y-101677452D01*
X160472380Y-101772690D01*
X160472380Y-101867928D01*
X160424761Y-101963166D01*
X160377142Y-102010785D01*
X160281904Y-102058404D01*
X160091428Y-102106023D01*
X159853333Y-102106023D01*
X159662857Y-102058404D01*
X159567619Y-102010785D01*
X159520000Y-101963166D01*
X159472380Y-101867928D01*
X140368928Y-96956571D02*
X140511785Y-97004190D01*
X140559404Y-97051809D01*
X140607023Y-97147047D01*
X140607023Y-97289904D01*
X140559404Y-97385142D01*
X140511785Y-97432761D01*
X140416547Y-97480380D01*
X140035595Y-97480380D01*
X140035595Y-96480380D01*
X140368928Y-96480380D01*
X140464166Y-96528000D01*
X140511785Y-96575619D01*
X140559404Y-96670857D01*
X140559404Y-96766095D01*
X140511785Y-96861333D01*
X140464166Y-96908952D01*
X140368928Y-96956571D01*
X140035595Y-96956571D01*
X140892738Y-96480380D02*
X141464166Y-96480380D01*
X141178452Y-97480380D02*
X141178452Y-96480380D01*
X141702261Y-97480380D02*
X142226071Y-96813714D01*
X141702261Y-96813714D02*
X142226071Y-97480380D01*
X122888952Y-107783380D02*
X122888952Y-108497666D01*
X122841333Y-108640523D01*
X122746095Y-108735761D01*
X122603238Y-108783380D01*
X122508000Y-108783380D01*
X123841333Y-108783380D02*
X123365142Y-108783380D01*
X123365142Y-107783380D01*
X124746095Y-108688142D02*
X124698476Y-108735761D01*
X124555619Y-108783380D01*
X124460380Y-108783380D01*
X124317523Y-108735761D01*
X124222285Y-108640523D01*
X124174666Y-108545285D01*
X124127047Y-108354809D01*
X124127047Y-108211952D01*
X124174666Y-108021476D01*
X124222285Y-107926238D01*
X124317523Y-107831000D01*
X124460380Y-107783380D01*
X124555619Y-107783380D01*
X124698476Y-107831000D01*
X124746095Y-107878619D01*
X125460380Y-107783380D02*
X125460380Y-108497666D01*
X125412761Y-108640523D01*
X125317523Y-108735761D01*
X125174666Y-108783380D01*
X125079428Y-108783380D01*
X126412761Y-108783380D02*
X125936571Y-108783380D01*
X125936571Y-107783380D01*
X127317523Y-108688142D02*
X127269904Y-108735761D01*
X127127047Y-108783380D01*
X127031809Y-108783380D01*
X126888952Y-108735761D01*
X126793714Y-108640523D01*
X126746095Y-108545285D01*
X126698476Y-108354809D01*
X126698476Y-108211952D01*
X126746095Y-108021476D01*
X126793714Y-107926238D01*
X126888952Y-107831000D01*
X127031809Y-107783380D01*
X127127047Y-107783380D01*
X127269904Y-107831000D01*
X127317523Y-107878619D01*
X128031809Y-107783380D02*
X128031809Y-108497666D01*
X127984190Y-108640523D01*
X127888952Y-108735761D01*
X127746095Y-108783380D01*
X127650857Y-108783380D01*
X128984190Y-108783380D02*
X128508000Y-108783380D01*
X128508000Y-107783380D01*
X129888952Y-108688142D02*
X129841333Y-108735761D01*
X129698476Y-108783380D01*
X129603238Y-108783380D01*
X129460380Y-108735761D01*
X129365142Y-108640523D01*
X129317523Y-108545285D01*
X129269904Y-108354809D01*
X129269904Y-108211952D01*
X129317523Y-108021476D01*
X129365142Y-107926238D01*
X129460380Y-107831000D01*
X129603238Y-107783380D01*
X129698476Y-107783380D01*
X129841333Y-107831000D01*
X129888952Y-107878619D01*
X130603238Y-107783380D02*
X130603238Y-108497666D01*
X130555619Y-108640523D01*
X130460380Y-108735761D01*
X130317523Y-108783380D01*
X130222285Y-108783380D01*
X131555619Y-108783380D02*
X131079428Y-108783380D01*
X131079428Y-107783380D01*
X132460380Y-108688142D02*
X132412761Y-108735761D01*
X132269904Y-108783380D01*
X132174666Y-108783380D01*
X132031809Y-108735761D01*
X131936571Y-108640523D01*
X131888952Y-108545285D01*
X131841333Y-108354809D01*
X131841333Y-108211952D01*
X131888952Y-108021476D01*
X131936571Y-107926238D01*
X132031809Y-107831000D01*
X132174666Y-107783380D01*
X132269904Y-107783380D01*
X132412761Y-107831000D01*
X132460380Y-107878619D01*
X143950000Y-107852500D02*
X143950000Y-106900119D01*
X145184761Y-107662023D02*
X145232380Y-107519166D01*
X145232380Y-107281071D01*
X145184761Y-107185833D01*
X145137142Y-107138214D01*
X145041904Y-107090595D01*
X144946666Y-107090595D01*
X144851428Y-107138214D01*
X144803809Y-107185833D01*
X144756190Y-107281071D01*
X144708571Y-107471547D01*
X144660952Y-107566785D01*
X144613333Y-107614404D01*
X144518095Y-107662023D01*
X144422857Y-107662023D01*
X144327619Y-107614404D01*
X144280000Y-107566785D01*
X144232380Y-107471547D01*
X144232380Y-107233452D01*
X144280000Y-107090595D01*
X143950000Y-106900119D02*
X143950000Y-105852500D01*
X144232380Y-106662023D02*
X145041904Y-106662023D01*
X145137142Y-106614404D01*
X145184761Y-106566785D01*
X145232380Y-106471547D01*
X145232380Y-106281071D01*
X145184761Y-106185833D01*
X145137142Y-106138214D01*
X145041904Y-106090595D01*
X144232380Y-106090595D01*
X143950000Y-105852500D02*
X143950000Y-104900119D01*
X145184761Y-105662023D02*
X145232380Y-105519166D01*
X145232380Y-105281071D01*
X145184761Y-105185833D01*
X145137142Y-105138214D01*
X145041904Y-105090595D01*
X144946666Y-105090595D01*
X144851428Y-105138214D01*
X144803809Y-105185833D01*
X144756190Y-105281071D01*
X144708571Y-105471547D01*
X144660952Y-105566785D01*
X144613333Y-105614404D01*
X144518095Y-105662023D01*
X144422857Y-105662023D01*
X144327619Y-105614404D01*
X144280000Y-105566785D01*
X144232380Y-105471547D01*
X144232380Y-105233452D01*
X144280000Y-105090595D01*
X143950000Y-104900119D02*
X143950000Y-103900119D01*
X145232380Y-104662023D02*
X144232380Y-104662023D01*
X144232380Y-104281071D01*
X144280000Y-104185833D01*
X144327619Y-104138214D01*
X144422857Y-104090595D01*
X144565714Y-104090595D01*
X144660952Y-104138214D01*
X144708571Y-104185833D01*
X144756190Y-104281071D01*
X144756190Y-104662023D01*
X143950000Y-103900119D02*
X143950000Y-102995357D01*
X144708571Y-103662023D02*
X144708571Y-103328690D01*
X145232380Y-103185833D02*
X145232380Y-103662023D01*
X144232380Y-103662023D01*
X144232380Y-103185833D01*
X143950000Y-102995357D02*
X143950000Y-101947738D01*
X145232380Y-102757261D02*
X144232380Y-102757261D01*
X145232380Y-102185833D01*
X144232380Y-102185833D01*
X143950000Y-101947738D02*
X143950000Y-100947738D01*
X145232380Y-101709642D02*
X144232380Y-101709642D01*
X144232380Y-101471547D01*
X144280000Y-101328690D01*
X144375238Y-101233452D01*
X144470476Y-101185833D01*
X144660952Y-101138214D01*
X144803809Y-101138214D01*
X144994285Y-101185833D01*
X145089523Y-101233452D01*
X145184761Y-101328690D01*
X145232380Y-101471547D01*
X145232380Y-101709642D01*
X162869523Y-98147142D02*
X162821904Y-98194761D01*
X162679047Y-98242380D01*
X162583809Y-98242380D01*
X162440952Y-98194761D01*
X162345714Y-98099523D01*
X162298095Y-98004285D01*
X162250476Y-97813809D01*
X162250476Y-97670952D01*
X162298095Y-97480476D01*
X162345714Y-97385238D01*
X162440952Y-97290000D01*
X162583809Y-97242380D01*
X162679047Y-97242380D01*
X162821904Y-97290000D01*
X162869523Y-97337619D01*
X139987976Y-92876666D02*
X140464166Y-92876666D01*
X139892738Y-93162380D02*
X140226071Y-92162380D01*
X140559404Y-93162380D01*
X140749880Y-92162380D02*
X141321309Y-92162380D01*
X141035595Y-93162380D02*
X141035595Y-92162380D01*
X141559404Y-93162380D02*
X142083214Y-92495714D01*
X141559404Y-92495714D02*
X142083214Y-93162380D01*
X192540000Y-95093214D02*
X192492380Y-95188452D01*
X192492380Y-95331309D01*
X192540000Y-95474166D01*
X192635238Y-95569404D01*
X192730476Y-95617023D01*
X192920952Y-95664642D01*
X193063809Y-95664642D01*
X193254285Y-95617023D01*
X193349523Y-95569404D01*
X193444761Y-95474166D01*
X193492380Y-95331309D01*
X193492380Y-95236071D01*
X193444761Y-95093214D01*
X193397142Y-95045595D01*
X193063809Y-95045595D01*
X193063809Y-95236071D01*
X193492380Y-94617023D02*
X192492380Y-94617023D01*
X193492380Y-94045595D01*
X192492380Y-94045595D01*
X193492380Y-93569404D02*
X192492380Y-93569404D01*
X192492380Y-93331309D01*
X192540000Y-93188452D01*
X192635238Y-93093214D01*
X192730476Y-93045595D01*
X192920952Y-92997976D01*
X193063809Y-92997976D01*
X193254285Y-93045595D01*
X193349523Y-93093214D01*
X193444761Y-93188452D01*
X193492380Y-93331309D01*
X193492380Y-93569404D01*
X151570000Y-107852500D02*
X151570000Y-106852500D01*
X152852380Y-107042976D02*
X152376190Y-107376309D01*
X152852380Y-107614404D02*
X151852380Y-107614404D01*
X151852380Y-107233452D01*
X151900000Y-107138214D01*
X151947619Y-107090595D01*
X152042857Y-107042976D01*
X152185714Y-107042976D01*
X152280952Y-107090595D01*
X152328571Y-107138214D01*
X152376190Y-107233452D01*
X152376190Y-107614404D01*
X151570000Y-106852500D02*
X151570000Y-106376309D01*
X152852380Y-106614404D02*
X151852380Y-106614404D01*
X144232380Y-95569404D02*
X145232380Y-95236071D01*
X144232380Y-94902738D01*
X145137142Y-93997976D02*
X145184761Y-94045595D01*
X145232380Y-94188452D01*
X145232380Y-94283690D01*
X145184761Y-94426547D01*
X145089523Y-94521785D01*
X144994285Y-94569404D01*
X144803809Y-94617023D01*
X144660952Y-94617023D01*
X144470476Y-94569404D01*
X144375238Y-94521785D01*
X144280000Y-94426547D01*
X144232380Y-94283690D01*
X144232380Y-94188452D01*
X144280000Y-94045595D01*
X144327619Y-93997976D01*
X145137142Y-92997976D02*
X145184761Y-93045595D01*
X145232380Y-93188452D01*
X145232380Y-93283690D01*
X145184761Y-93426547D01*
X145089523Y-93521785D01*
X144994285Y-93569404D01*
X144803809Y-93617023D01*
X144660952Y-93617023D01*
X144470476Y-93569404D01*
X144375238Y-93521785D01*
X144280000Y-93426547D01*
X144232380Y-93283690D01*
X144232380Y-93188452D01*
X144280000Y-93045595D01*
X144327619Y-92997976D01*
X149312380Y-107709642D02*
X149312380Y-107090595D01*
X149693333Y-107423928D01*
X149693333Y-107281071D01*
X149740952Y-107185833D01*
X149788571Y-107138214D01*
X149883809Y-107090595D01*
X150121904Y-107090595D01*
X150217142Y-107138214D01*
X150264761Y-107185833D01*
X150312380Y-107281071D01*
X150312380Y-107566785D01*
X150264761Y-107662023D01*
X150217142Y-107709642D01*
X149312380Y-106804880D02*
X150312380Y-106471547D01*
X149312380Y-106138214D01*
X149312380Y-105900119D02*
X149312380Y-105281071D01*
X149693333Y-105614404D01*
X149693333Y-105471547D01*
X149740952Y-105376309D01*
X149788571Y-105328690D01*
X149883809Y-105281071D01*
X150121904Y-105281071D01*
X150217142Y-105328690D01*
X150264761Y-105376309D01*
X150312380Y-105471547D01*
X150312380Y-105757261D01*
X150264761Y-105852500D01*
X150217142Y-105900119D01*
X169350000Y-94283690D02*
X169350000Y-93283690D01*
X170632380Y-93474166D02*
X170156190Y-93807500D01*
X170632380Y-94045595D02*
X169632380Y-94045595D01*
X169632380Y-93664642D01*
X169680000Y-93569404D01*
X169727619Y-93521785D01*
X169822857Y-93474166D01*
X169965714Y-93474166D01*
X170060952Y-93521785D01*
X170108571Y-93569404D01*
X170156190Y-93664642D01*
X170156190Y-94045595D01*
X169350000Y-93283690D02*
X169350000Y-92807500D01*
X170632380Y-93045595D02*
X169632380Y-93045595D01*
X182618095Y-98242380D02*
X182618095Y-97242380D01*
X182856190Y-97242380D01*
X182999047Y-97290000D01*
X183094285Y-97385238D01*
X183141904Y-97480476D01*
X183189523Y-97670952D01*
X183189523Y-97813809D01*
X183141904Y-98004285D01*
X183094285Y-98099523D01*
X182999047Y-98194761D01*
X182856190Y-98242380D01*
X182618095Y-98242380D01*
X140035595Y-108275380D02*
X140035595Y-107275380D01*
X140273690Y-107275380D01*
X140416547Y-107323000D01*
X140511785Y-107418238D01*
X140559404Y-107513476D01*
X140607023Y-107703952D01*
X140607023Y-107846809D01*
X140559404Y-108037285D01*
X140511785Y-108132523D01*
X140416547Y-108227761D01*
X140273690Y-108275380D01*
X140035595Y-108275380D01*
X141607023Y-108275380D02*
X141273690Y-107799190D01*
X141035595Y-108275380D02*
X141035595Y-107275380D01*
X141416547Y-107275380D01*
X141511785Y-107323000D01*
X141559404Y-107370619D01*
X141607023Y-107465857D01*
X141607023Y-107608714D01*
X141559404Y-107703952D01*
X141511785Y-107751571D01*
X141416547Y-107799190D01*
X141035595Y-107799190D01*
X141940357Y-108275380D02*
X142464166Y-107608714D01*
X141940357Y-107608714D02*
X142464166Y-108275380D01*
X182050000Y-95569404D02*
X182050000Y-94569404D01*
X183332380Y-95331309D02*
X182332380Y-95331309D01*
X182332380Y-95093214D01*
X182380000Y-94950357D01*
X182475238Y-94855119D01*
X182570476Y-94807500D01*
X182760952Y-94759880D01*
X182903809Y-94759880D01*
X183094285Y-94807500D01*
X183189523Y-94855119D01*
X183284761Y-94950357D01*
X183332380Y-95093214D01*
X183332380Y-95331309D01*
X182050000Y-94569404D02*
X182050000Y-93807500D01*
X182332380Y-94474166D02*
X182332380Y-93902738D01*
X183332380Y-94188452D02*
X182332380Y-94188452D01*
X182050000Y-93807500D02*
X182050000Y-92807500D01*
X183332380Y-92997976D02*
X182856190Y-93331309D01*
X183332380Y-93569404D02*
X182332380Y-93569404D01*
X182332380Y-93188452D01*
X182380000Y-93093214D01*
X182427619Y-93045595D01*
X182522857Y-92997976D01*
X182665714Y-92997976D01*
X182760952Y-93045595D01*
X182808571Y-93093214D01*
X182856190Y-93188452D01*
X182856190Y-93569404D01*
X190111289Y-107753398D02*
X190111289Y-107181970D01*
X191111289Y-107467684D02*
X190111289Y-107467684D01*
X190111289Y-106943875D02*
X191111289Y-106277208D01*
X190111289Y-106277208D02*
X191111289Y-106943875D01*
X191111289Y-105896256D02*
X190111289Y-105896256D01*
X190111289Y-105658160D01*
X190158909Y-105515303D01*
X190254147Y-105420065D01*
X190349385Y-105372446D01*
X190539861Y-105324827D01*
X190682718Y-105324827D01*
X190873194Y-105372446D01*
X190968432Y-105420065D01*
X191063670Y-105515303D01*
X191111289Y-105658160D01*
X191111289Y-105896256D01*
X177300000Y-103534595D02*
X177252380Y-103629833D01*
X177252380Y-103772690D01*
X177300000Y-103915547D01*
X177395238Y-104010785D01*
X177490476Y-104058404D01*
X177680952Y-104106023D01*
X177823809Y-104106023D01*
X178014285Y-104058404D01*
X178109523Y-104010785D01*
X178204761Y-103915547D01*
X178252380Y-103772690D01*
X178252380Y-103677452D01*
X178204761Y-103534595D01*
X178157142Y-103486976D01*
X177823809Y-103486976D01*
X177823809Y-103677452D01*
X178252380Y-103058404D02*
X177252380Y-103058404D01*
X177252380Y-102677452D01*
X177300000Y-102582214D01*
X177347619Y-102534595D01*
X177442857Y-102486976D01*
X177585714Y-102486976D01*
X177680952Y-102534595D01*
X177728571Y-102582214D01*
X177776190Y-102677452D01*
X177776190Y-103058404D01*
X178252380Y-101534595D02*
X178252380Y-102106023D01*
X178252380Y-101820309D02*
X177252380Y-101820309D01*
X177395238Y-101915547D01*
X177490476Y-102010785D01*
X177538095Y-102106023D01*
X139987976Y-95035666D02*
X140464166Y-95035666D01*
X139892738Y-95321380D02*
X140226071Y-94321380D01*
X140559404Y-95321380D01*
X141464166Y-95321380D02*
X141130833Y-94845190D01*
X140892738Y-95321380D02*
X140892738Y-94321380D01*
X141273690Y-94321380D01*
X141368928Y-94369000D01*
X141416547Y-94416619D01*
X141464166Y-94511857D01*
X141464166Y-94654714D01*
X141416547Y-94749952D01*
X141368928Y-94797571D01*
X141273690Y-94845190D01*
X140892738Y-94845190D01*
X141797500Y-95321380D02*
X142321309Y-94654714D01*
X141797500Y-94654714D02*
X142321309Y-95321380D01*
X168026770Y-107059544D02*
X167550580Y-107392877D01*
X168026770Y-107630972D02*
X167026770Y-107630972D01*
X167026770Y-107250020D01*
X167074390Y-107154782D01*
X167122009Y-107107163D01*
X167217247Y-107059544D01*
X167360104Y-107059544D01*
X167455342Y-107107163D01*
X167502961Y-107154782D01*
X167550580Y-107250020D01*
X167550580Y-107630972D01*
X167026770Y-106726210D02*
X168026770Y-106059544D01*
X167026770Y-106059544D02*
X168026770Y-106726210D01*
X168026770Y-105678591D02*
X167026770Y-105678591D01*
X167026770Y-105440496D01*
X167074390Y-105297639D01*
X167169628Y-105202401D01*
X167264866Y-105154782D01*
X167455342Y-105107163D01*
X167598199Y-105107163D01*
X167788675Y-105154782D01*
X167883913Y-105202401D01*
X167979151Y-105297639D01*
X168026770Y-105440496D01*
X168026770Y-105678591D01*
X160091428Y-99242571D02*
X160234285Y-99290190D01*
X160281904Y-99337809D01*
X160329523Y-99433047D01*
X160329523Y-99575904D01*
X160281904Y-99671142D01*
X160234285Y-99718761D01*
X160139047Y-99766380D01*
X159758095Y-99766380D01*
X159758095Y-98766380D01*
X160091428Y-98766380D01*
X160186666Y-98814000D01*
X160234285Y-98861619D01*
X160281904Y-98956857D01*
X160281904Y-99052095D01*
X160234285Y-99147333D01*
X160186666Y-99194952D01*
X160091428Y-99242571D01*
X159758095Y-99242571D01*
X146490000Y-107852500D02*
X146490000Y-106852500D01*
X147772380Y-107042976D02*
X147296190Y-107376309D01*
X147772380Y-107614404D02*
X146772380Y-107614404D01*
X146772380Y-107233452D01*
X146820000Y-107138214D01*
X146867619Y-107090595D01*
X146962857Y-107042976D01*
X147105714Y-107042976D01*
X147200952Y-107090595D01*
X147248571Y-107138214D01*
X147296190Y-107233452D01*
X147296190Y-107614404D01*
X146490000Y-106852500D02*
X146490000Y-105947738D01*
X147248571Y-106614404D02*
X147248571Y-106281071D01*
X147772380Y-106138214D02*
X147772380Y-106614404D01*
X146772380Y-106614404D01*
X146772380Y-106138214D01*
X146490000Y-105947738D02*
X146490000Y-104995357D01*
X147724761Y-105757261D02*
X147772380Y-105614404D01*
X147772380Y-105376309D01*
X147724761Y-105281071D01*
X147677142Y-105233452D01*
X147581904Y-105185833D01*
X147486666Y-105185833D01*
X147391428Y-105233452D01*
X147343809Y-105281071D01*
X147296190Y-105376309D01*
X147248571Y-105566785D01*
X147200952Y-105662023D01*
X147153333Y-105709642D01*
X147058095Y-105757261D01*
X146962857Y-105757261D01*
X146867619Y-105709642D01*
X146820000Y-105662023D01*
X146772380Y-105566785D01*
X146772380Y-105328690D01*
X146820000Y-105185833D01*
X146490000Y-104995357D02*
X146490000Y-104090595D01*
X147248571Y-104757261D02*
X147248571Y-104423928D01*
X147772380Y-104281071D02*
X147772380Y-104757261D01*
X146772380Y-104757261D01*
X146772380Y-104281071D01*
X146490000Y-104090595D02*
X146490000Y-103328690D01*
X146772380Y-103995357D02*
X146772380Y-103423928D01*
X147772380Y-103709642D02*
X146772380Y-103709642D01*
X146772380Y-96569404D02*
X147772380Y-96236071D01*
X146772380Y-95902738D01*
X147248571Y-95236071D02*
X147296190Y-95093214D01*
X147343809Y-95045595D01*
X147439047Y-94997976D01*
X147581904Y-94997976D01*
X147677142Y-95045595D01*
X147724761Y-95093214D01*
X147772380Y-95188452D01*
X147772380Y-95569404D01*
X146772380Y-95569404D01*
X146772380Y-95236071D01*
X146820000Y-95140833D01*
X146867619Y-95093214D01*
X146962857Y-95045595D01*
X147058095Y-95045595D01*
X147153333Y-95093214D01*
X147200952Y-95140833D01*
X147248571Y-95236071D01*
X147248571Y-95569404D01*
X146772380Y-94569404D02*
X147581904Y-94569404D01*
X147677142Y-94521785D01*
X147724761Y-94474166D01*
X147772380Y-94378928D01*
X147772380Y-94188452D01*
X147724761Y-94093214D01*
X147677142Y-94045595D01*
X147581904Y-93997976D01*
X146772380Y-93997976D01*
X147724761Y-93569404D02*
X147772380Y-93426547D01*
X147772380Y-93188452D01*
X147724761Y-93093214D01*
X147677142Y-93045595D01*
X147581904Y-92997976D01*
X147486666Y-92997976D01*
X147391428Y-93045595D01*
X147343809Y-93093214D01*
X147296190Y-93188452D01*
X147248571Y-93378928D01*
X147200952Y-93474166D01*
X147153333Y-93521785D01*
X147058095Y-93569404D01*
X146962857Y-93569404D01*
X146867619Y-93521785D01*
X146820000Y-93474166D01*
X146772380Y-93378928D01*
X146772380Y-93140833D01*
X146820000Y-92997976D01*
X174760000Y-103534595D02*
X174712380Y-103629833D01*
X174712380Y-103772690D01*
X174760000Y-103915547D01*
X174855238Y-104010785D01*
X174950476Y-104058404D01*
X175140952Y-104106023D01*
X175283809Y-104106023D01*
X175474285Y-104058404D01*
X175569523Y-104010785D01*
X175664761Y-103915547D01*
X175712380Y-103772690D01*
X175712380Y-103677452D01*
X175664761Y-103534595D01*
X175617142Y-103486976D01*
X175283809Y-103486976D01*
X175283809Y-103677452D01*
X175712380Y-103058404D02*
X174712380Y-103058404D01*
X174712380Y-102677452D01*
X174760000Y-102582214D01*
X174807619Y-102534595D01*
X174902857Y-102486976D01*
X175045714Y-102486976D01*
X175140952Y-102534595D01*
X175188571Y-102582214D01*
X175236190Y-102677452D01*
X175236190Y-103058404D01*
X174807619Y-102106023D02*
X174760000Y-102058404D01*
X174712380Y-101963166D01*
X174712380Y-101725071D01*
X174760000Y-101629833D01*
X174807619Y-101582214D01*
X174902857Y-101534595D01*
X174998095Y-101534595D01*
X175140952Y-101582214D01*
X175712380Y-102153642D01*
X175712380Y-101534595D01*
X172220000Y-103534595D02*
X172172380Y-103629833D01*
X172172380Y-103772690D01*
X172220000Y-103915547D01*
X172315238Y-104010785D01*
X172410476Y-104058404D01*
X172600952Y-104106023D01*
X172743809Y-104106023D01*
X172934285Y-104058404D01*
X173029523Y-104010785D01*
X173124761Y-103915547D01*
X173172380Y-103772690D01*
X173172380Y-103677452D01*
X173124761Y-103534595D01*
X173077142Y-103486976D01*
X172743809Y-103486976D01*
X172743809Y-103677452D01*
X173172380Y-103058404D02*
X172172380Y-103058404D01*
X172172380Y-102677452D01*
X172220000Y-102582214D01*
X172267619Y-102534595D01*
X172362857Y-102486976D01*
X172505714Y-102486976D01*
X172600952Y-102534595D01*
X172648571Y-102582214D01*
X172696190Y-102677452D01*
X172696190Y-103058404D01*
X172172380Y-102153642D02*
X172172380Y-101534595D01*
X172553333Y-101867928D01*
X172553333Y-101725071D01*
X172600952Y-101629833D01*
X172648571Y-101582214D01*
X172743809Y-101534595D01*
X172981904Y-101534595D01*
X173077142Y-101582214D01*
X173124761Y-101629833D01*
X173172380Y-101725071D01*
X173172380Y-102010785D01*
X173124761Y-102106023D01*
X173077142Y-102153642D01*
X140368928Y-99115571D02*
X140511785Y-99163190D01*
X140559404Y-99210809D01*
X140607023Y-99306047D01*
X140607023Y-99448904D01*
X140559404Y-99544142D01*
X140511785Y-99591761D01*
X140416547Y-99639380D01*
X140035595Y-99639380D01*
X140035595Y-98639380D01*
X140368928Y-98639380D01*
X140464166Y-98687000D01*
X140511785Y-98734619D01*
X140559404Y-98829857D01*
X140559404Y-98925095D01*
X140511785Y-99020333D01*
X140464166Y-99067952D01*
X140368928Y-99115571D01*
X140035595Y-99115571D01*
X141607023Y-99639380D02*
X141273690Y-99163190D01*
X141035595Y-99639380D02*
X141035595Y-98639380D01*
X141416547Y-98639380D01*
X141511785Y-98687000D01*
X141559404Y-98734619D01*
X141607023Y-98829857D01*
X141607023Y-98972714D01*
X141559404Y-99067952D01*
X141511785Y-99115571D01*
X141416547Y-99163190D01*
X141035595Y-99163190D01*
X141940357Y-99639380D02*
X142464166Y-98972714D01*
X141940357Y-98972714D02*
X142464166Y-99639380D01*
X170537142Y-103486976D02*
X170584761Y-103534595D01*
X170632380Y-103677452D01*
X170632380Y-103772690D01*
X170584761Y-103915547D01*
X170489523Y-104010785D01*
X170394285Y-104058404D01*
X170203809Y-104106023D01*
X170060952Y-104106023D01*
X169870476Y-104058404D01*
X169775238Y-104010785D01*
X169680000Y-103915547D01*
X169632380Y-103772690D01*
X169632380Y-103677452D01*
X169680000Y-103534595D01*
X169727619Y-103486976D01*
X170632380Y-103058404D02*
X169632380Y-103058404D01*
X170632380Y-102486976D02*
X170060952Y-102915547D01*
X169632380Y-102486976D02*
X170203809Y-103058404D01*
X159124390Y-107869068D02*
X159124390Y-106869068D01*
X160406770Y-107630972D02*
X159406770Y-107630972D01*
X159406770Y-107392877D01*
X159454390Y-107250020D01*
X159549628Y-107154782D01*
X159644866Y-107107163D01*
X159835342Y-107059544D01*
X159978199Y-107059544D01*
X160168675Y-107107163D01*
X160263913Y-107154782D01*
X160359151Y-107250020D01*
X160406770Y-107392877D01*
X160406770Y-107630972D01*
X159124390Y-106869068D02*
X159124390Y-106107163D01*
X159406770Y-106773829D02*
X159406770Y-106202401D01*
X160406770Y-106488115D02*
X159406770Y-106488115D01*
X159124390Y-106107163D02*
X159124390Y-105107163D01*
X160406770Y-105297639D02*
X159930580Y-105630972D01*
X160406770Y-105869068D02*
X159406770Y-105869068D01*
X159406770Y-105488115D01*
X159454390Y-105392877D01*
X159502009Y-105345258D01*
X159597247Y-105297639D01*
X159740104Y-105297639D01*
X159835342Y-105345258D01*
X159882961Y-105392877D01*
X159930580Y-105488115D01*
X159930580Y-105869068D01*
X176904390Y-107869068D02*
X176904390Y-106869068D01*
X178186770Y-107630972D02*
X177186770Y-107630972D01*
X177186770Y-107392877D01*
X177234390Y-107250020D01*
X177329628Y-107154782D01*
X177424866Y-107107163D01*
X177615342Y-107059544D01*
X177758199Y-107059544D01*
X177948675Y-107107163D01*
X178043913Y-107154782D01*
X178139151Y-107250020D01*
X178186770Y-107392877D01*
X178186770Y-107630972D01*
X176904390Y-106869068D02*
X176904390Y-105916687D01*
X178139151Y-106678591D02*
X178186770Y-106535734D01*
X178186770Y-106297639D01*
X178139151Y-106202401D01*
X178091532Y-106154782D01*
X177996294Y-106107163D01*
X177901056Y-106107163D01*
X177805818Y-106154782D01*
X177758199Y-106202401D01*
X177710580Y-106297639D01*
X177662961Y-106488115D01*
X177615342Y-106583353D01*
X177567723Y-106630972D01*
X177472485Y-106678591D01*
X177377247Y-106678591D01*
X177282009Y-106630972D01*
X177234390Y-106583353D01*
X177186770Y-106488115D01*
X177186770Y-106250020D01*
X177234390Y-106107163D01*
X176904390Y-105916687D02*
X176904390Y-104916687D01*
X178186770Y-105107163D02*
X177710580Y-105440496D01*
X178186770Y-105678591D02*
X177186770Y-105678591D01*
X177186770Y-105297639D01*
X177234390Y-105202401D01*
X177282009Y-105154782D01*
X177377247Y-105107163D01*
X177520104Y-105107163D01*
X177615342Y-105154782D01*
X177662961Y-105202401D01*
X177710580Y-105297639D01*
X177710580Y-105678591D01*
X155392380Y-94950357D02*
X154916190Y-95283690D01*
X155392380Y-95521785D02*
X154392380Y-95521785D01*
X154392380Y-95140833D01*
X154440000Y-95045595D01*
X154487619Y-94997976D01*
X154582857Y-94950357D01*
X154725714Y-94950357D01*
X154820952Y-94997976D01*
X154868571Y-95045595D01*
X154916190Y-95140833D01*
X154916190Y-95521785D01*
X154392380Y-94617023D02*
X155392380Y-93950357D01*
X154392380Y-93950357D02*
X155392380Y-94617023D01*
X155392380Y-93569404D02*
X154392380Y-93569404D01*
X154392380Y-93331309D01*
X154440000Y-93188452D01*
X154535238Y-93093214D01*
X154630476Y-93045595D01*
X154820952Y-92997976D01*
X154963809Y-92997976D01*
X155154285Y-93045595D01*
X155249523Y-93093214D01*
X155344761Y-93188452D01*
X155392380Y-93331309D01*
X155392380Y-93569404D01*
X179840000Y-103534595D02*
X179792380Y-103629833D01*
X179792380Y-103772690D01*
X179840000Y-103915547D01*
X179935238Y-104010785D01*
X180030476Y-104058404D01*
X180220952Y-104106023D01*
X180363809Y-104106023D01*
X180554285Y-104058404D01*
X180649523Y-104010785D01*
X180744761Y-103915547D01*
X180792380Y-103772690D01*
X180792380Y-103677452D01*
X180744761Y-103534595D01*
X180697142Y-103486976D01*
X180363809Y-103486976D01*
X180363809Y-103677452D01*
X180792380Y-103058404D02*
X179792380Y-103058404D01*
X179792380Y-102677452D01*
X179840000Y-102582214D01*
X179887619Y-102534595D01*
X179982857Y-102486976D01*
X180125714Y-102486976D01*
X180220952Y-102534595D01*
X180268571Y-102582214D01*
X180316190Y-102677452D01*
X180316190Y-103058404D01*
X179792380Y-101867928D02*
X179792380Y-101772690D01*
X179840000Y-101677452D01*
X179887619Y-101629833D01*
X179982857Y-101582214D01*
X180173333Y-101534595D01*
X180411428Y-101534595D01*
X180601904Y-101582214D01*
X180697142Y-101629833D01*
X180744761Y-101677452D01*
X180792380Y-101772690D01*
X180792380Y-101867928D01*
X180744761Y-101963166D01*
X180697142Y-102010785D01*
X180601904Y-102058404D01*
X180411428Y-102106023D01*
X180173333Y-102106023D01*
X179982857Y-102058404D01*
X179887619Y-102010785D01*
X179840000Y-101963166D01*
X179792380Y-101867928D01*
X161730000Y-95569404D02*
X161730000Y-94569404D01*
X163012380Y-95331309D02*
X162012380Y-95331309D01*
X162012380Y-95093214D01*
X162060000Y-94950357D01*
X162155238Y-94855119D01*
X162250476Y-94807500D01*
X162440952Y-94759880D01*
X162583809Y-94759880D01*
X162774285Y-94807500D01*
X162869523Y-94855119D01*
X162964761Y-94950357D01*
X163012380Y-95093214D01*
X163012380Y-95331309D01*
X161730000Y-94569404D02*
X161730000Y-93807500D01*
X162012380Y-94474166D02*
X162012380Y-93902738D01*
X163012380Y-94188452D02*
X162012380Y-94188452D01*
X161730000Y-93807500D02*
X161730000Y-92807500D01*
X163012380Y-92997976D02*
X162536190Y-93331309D01*
X163012380Y-93569404D02*
X162012380Y-93569404D01*
X162012380Y-93188452D01*
X162060000Y-93093214D01*
X162107619Y-93045595D01*
X162202857Y-92997976D01*
X162345714Y-92997976D01*
X162440952Y-93045595D01*
X162488571Y-93093214D01*
X162536190Y-93188452D01*
X162536190Y-93569404D01*
X176970000Y-95521785D02*
X176970000Y-94521785D01*
X178252380Y-94712261D02*
X177776190Y-95045595D01*
X178252380Y-95283690D02*
X177252380Y-95283690D01*
X177252380Y-94902738D01*
X177300000Y-94807500D01*
X177347619Y-94759880D01*
X177442857Y-94712261D01*
X177585714Y-94712261D01*
X177680952Y-94759880D01*
X177728571Y-94807500D01*
X177776190Y-94902738D01*
X177776190Y-95283690D01*
X176970000Y-94521785D02*
X176970000Y-93759880D01*
X177252380Y-94426547D02*
X177252380Y-93855119D01*
X178252380Y-94140833D02*
X177252380Y-94140833D01*
X176970000Y-93759880D02*
X176970000Y-92807500D01*
X178204761Y-93569404D02*
X178252380Y-93426547D01*
X178252380Y-93188452D01*
X178204761Y-93093214D01*
X178157142Y-93045595D01*
X178061904Y-92997976D01*
X177966666Y-92997976D01*
X177871428Y-93045595D01*
X177823809Y-93093214D01*
X177776190Y-93188452D01*
X177728571Y-93378928D01*
X177680952Y-93474166D01*
X177633333Y-93521785D01*
X177538095Y-93569404D01*
X177442857Y-93569404D01*
X177347619Y-93521785D01*
X177300000Y-93474166D01*
X177252380Y-93378928D01*
X177252380Y-93140833D01*
X177300000Y-92997976D01*
X169791289Y-107753398D02*
X169791289Y-107181970D01*
X170791289Y-107467684D02*
X169791289Y-107467684D01*
X169791289Y-106943875D02*
X170791289Y-106277208D01*
X169791289Y-106277208D02*
X170791289Y-106943875D01*
X170791289Y-105896256D02*
X169791289Y-105896256D01*
X169791289Y-105658160D01*
X169838909Y-105515303D01*
X169934147Y-105420065D01*
X170029385Y-105372446D01*
X170219861Y-105324827D01*
X170362718Y-105324827D01*
X170553194Y-105372446D01*
X170648432Y-105420065D01*
X170743670Y-105515303D01*
X170791289Y-105658160D01*
X170791289Y-105896256D01*
X192540000Y-107090595D02*
X192492380Y-107185833D01*
X192492380Y-107328690D01*
X192540000Y-107471547D01*
X192635238Y-107566785D01*
X192730476Y-107614404D01*
X192920952Y-107662023D01*
X193063809Y-107662023D01*
X193254285Y-107614404D01*
X193349523Y-107566785D01*
X193444761Y-107471547D01*
X193492380Y-107328690D01*
X193492380Y-107233452D01*
X193444761Y-107090595D01*
X193397142Y-107042976D01*
X193063809Y-107042976D01*
X193063809Y-107233452D01*
X193492380Y-106614404D02*
X192492380Y-106614404D01*
X193492380Y-106042976D01*
X192492380Y-106042976D01*
X193492380Y-105566785D02*
X192492380Y-105566785D01*
X192492380Y-105328690D01*
X192540000Y-105185833D01*
X192635238Y-105090595D01*
X192730476Y-105042976D01*
X192920952Y-104995357D01*
X193063809Y-104995357D01*
X193254285Y-105042976D01*
X193349523Y-105090595D01*
X193444761Y-105185833D01*
X193492380Y-105328690D01*
X193492380Y-105566785D01*
X149030000Y-97902738D02*
X149030000Y-96902738D01*
X150312380Y-97664642D02*
X149312380Y-97664642D01*
X149312380Y-97283690D01*
X149360000Y-97188452D01*
X149407619Y-97140833D01*
X149502857Y-97093214D01*
X149645714Y-97093214D01*
X149740952Y-97140833D01*
X149788571Y-97188452D01*
X149836190Y-97283690D01*
X149836190Y-97664642D01*
X149030000Y-96902738D02*
X149030000Y-95759880D01*
X149312380Y-96759880D02*
X150312380Y-96521785D01*
X149598095Y-96331309D01*
X150312380Y-96140833D01*
X149312380Y-95902738D01*
X149030000Y-95759880D02*
X149030000Y-94759880D01*
X150312380Y-94950357D02*
X149836190Y-95283690D01*
X150312380Y-95521785D02*
X149312380Y-95521785D01*
X149312380Y-95140833D01*
X149360000Y-95045595D01*
X149407619Y-94997976D01*
X149502857Y-94950357D01*
X149645714Y-94950357D01*
X149740952Y-94997976D01*
X149788571Y-95045595D01*
X149836190Y-95140833D01*
X149836190Y-95521785D01*
X149030000Y-94759880D02*
X149030000Y-93855119D01*
X149788571Y-94521785D02*
X149788571Y-94188452D01*
X150312380Y-94045595D02*
X150312380Y-94521785D01*
X149312380Y-94521785D01*
X149312380Y-94045595D01*
X149030000Y-93855119D02*
X149030000Y-92807500D01*
X150312380Y-93617023D02*
X149312380Y-93617023D01*
X150312380Y-93045595D01*
X149312380Y-93045595D01*
X154044390Y-107869068D02*
X154044390Y-106869068D01*
X155326770Y-107630972D02*
X154326770Y-107630972D01*
X154326770Y-107392877D01*
X154374390Y-107250020D01*
X154469628Y-107154782D01*
X154564866Y-107107163D01*
X154755342Y-107059544D01*
X154898199Y-107059544D01*
X155088675Y-107107163D01*
X155183913Y-107154782D01*
X155279151Y-107250020D01*
X155326770Y-107392877D01*
X155326770Y-107630972D01*
X154044390Y-106869068D02*
X154044390Y-105869068D01*
X155231532Y-106059544D02*
X155279151Y-106107163D01*
X155326770Y-106250020D01*
X155326770Y-106345258D01*
X155279151Y-106488115D01*
X155183913Y-106583353D01*
X155088675Y-106630972D01*
X154898199Y-106678591D01*
X154755342Y-106678591D01*
X154564866Y-106630972D01*
X154469628Y-106583353D01*
X154374390Y-106488115D01*
X154326770Y-106345258D01*
X154326770Y-106250020D01*
X154374390Y-106107163D01*
X154422009Y-106059544D01*
X154044390Y-105869068D02*
X154044390Y-104869068D01*
X155326770Y-105630972D02*
X154326770Y-105630972D01*
X154326770Y-105392877D01*
X154374390Y-105250020D01*
X154469628Y-105154782D01*
X154564866Y-105107163D01*
X154755342Y-105059544D01*
X154898199Y-105059544D01*
X155088675Y-105107163D01*
X155183913Y-105154782D01*
X155279151Y-105250020D01*
X155326770Y-105392877D01*
X155326770Y-105630972D01*
X168092380Y-104058404D02*
X167092380Y-104058404D01*
X167092380Y-103820309D01*
X167140000Y-103677452D01*
X167235238Y-103582214D01*
X167330476Y-103534595D01*
X167520952Y-103486976D01*
X167663809Y-103486976D01*
X167854285Y-103534595D01*
X167949523Y-103582214D01*
X168044761Y-103677452D01*
X168092380Y-103820309D01*
X168092380Y-104058404D01*
X167092380Y-102867928D02*
X167092380Y-102772690D01*
X167140000Y-102677452D01*
X167187619Y-102629833D01*
X167282857Y-102582214D01*
X167473333Y-102534595D01*
X167711428Y-102534595D01*
X167901904Y-102582214D01*
X167997142Y-102629833D01*
X168044761Y-102677452D01*
X168092380Y-102772690D01*
X168092380Y-102867928D01*
X168044761Y-102963166D01*
X167997142Y-103010785D01*
X167901904Y-103058404D01*
X167711428Y-103106023D01*
X167473333Y-103106023D01*
X167282857Y-103058404D01*
X167187619Y-103010785D01*
X167140000Y-102963166D01*
X167092380Y-102867928D01*
X188346770Y-107059544D02*
X187870580Y-107392877D01*
X188346770Y-107630972D02*
X187346770Y-107630972D01*
X187346770Y-107250020D01*
X187394390Y-107154782D01*
X187442009Y-107107163D01*
X187537247Y-107059544D01*
X187680104Y-107059544D01*
X187775342Y-107107163D01*
X187822961Y-107154782D01*
X187870580Y-107250020D01*
X187870580Y-107630972D01*
X187346770Y-106726210D02*
X188346770Y-106059544D01*
X187346770Y-106059544D02*
X188346770Y-106726210D01*
X188346770Y-105678591D02*
X187346770Y-105678591D01*
X187346770Y-105440496D01*
X187394390Y-105297639D01*
X187489628Y-105202401D01*
X187584866Y-105154782D01*
X187775342Y-105107163D01*
X187918199Y-105107163D01*
X188108675Y-105154782D01*
X188203913Y-105202401D01*
X188299151Y-105297639D01*
X188346770Y-105440496D01*
X188346770Y-105678591D01*
X159190000Y-95521785D02*
X159190000Y-94521785D01*
X160377142Y-94712261D02*
X160424761Y-94759880D01*
X160472380Y-94902738D01*
X160472380Y-94997976D01*
X160424761Y-95140833D01*
X160329523Y-95236071D01*
X160234285Y-95283690D01*
X160043809Y-95331309D01*
X159900952Y-95331309D01*
X159710476Y-95283690D01*
X159615238Y-95236071D01*
X159520000Y-95140833D01*
X159472380Y-94997976D01*
X159472380Y-94902738D01*
X159520000Y-94759880D01*
X159567619Y-94712261D01*
X159190000Y-94521785D02*
X159190000Y-93759880D01*
X159472380Y-94426547D02*
X159472380Y-93855119D01*
X160472380Y-94140833D02*
X159472380Y-94140833D01*
X159190000Y-93759880D02*
X159190000Y-92807500D01*
X160424761Y-93569404D02*
X160472380Y-93426547D01*
X160472380Y-93188452D01*
X160424761Y-93093214D01*
X160377142Y-93045595D01*
X160281904Y-92997976D01*
X160186666Y-92997976D01*
X160091428Y-93045595D01*
X160043809Y-93093214D01*
X159996190Y-93188452D01*
X159948571Y-93378928D01*
X159900952Y-93474166D01*
X159853333Y-93521785D01*
X159758095Y-93569404D01*
X159662857Y-93569404D01*
X159567619Y-93521785D01*
X159520000Y-93474166D01*
X159472380Y-93378928D01*
X159472380Y-93140833D01*
X159520000Y-92997976D01*
X188412380Y-104058404D02*
X187412380Y-104058404D01*
X187412380Y-103820309D01*
X187460000Y-103677452D01*
X187555238Y-103582214D01*
X187650476Y-103534595D01*
X187840952Y-103486976D01*
X187983809Y-103486976D01*
X188174285Y-103534595D01*
X188269523Y-103582214D01*
X188364761Y-103677452D01*
X188412380Y-103820309D01*
X188412380Y-104058404D01*
X187412380Y-102867928D02*
X187412380Y-102772690D01*
X187460000Y-102677452D01*
X187507619Y-102629833D01*
X187602857Y-102582214D01*
X187793333Y-102534595D01*
X188031428Y-102534595D01*
X188221904Y-102582214D01*
X188317142Y-102629833D01*
X188364761Y-102677452D01*
X188412380Y-102772690D01*
X188412380Y-102867928D01*
X188364761Y-102963166D01*
X188317142Y-103010785D01*
X188221904Y-103058404D01*
X188031428Y-103106023D01*
X187793333Y-103106023D01*
X187602857Y-103058404D01*
X187507619Y-103010785D01*
X187460000Y-102963166D01*
X187412380Y-102867928D01*
X189670000Y-94283690D02*
X189670000Y-93283690D01*
X190952380Y-93474166D02*
X190476190Y-93807500D01*
X190952380Y-94045595D02*
X189952380Y-94045595D01*
X189952380Y-93664642D01*
X190000000Y-93569404D01*
X190047619Y-93521785D01*
X190142857Y-93474166D01*
X190285714Y-93474166D01*
X190380952Y-93521785D01*
X190428571Y-93569404D01*
X190476190Y-93664642D01*
X190476190Y-94045595D01*
X189670000Y-93283690D02*
X189670000Y-92807500D01*
X190952380Y-93045595D02*
X189952380Y-93045595D01*
X122776261Y-92468571D02*
X122442928Y-92468571D01*
X122442928Y-92992380D02*
X122442928Y-91992380D01*
X122919119Y-91992380D01*
X123157214Y-91992380D02*
X123728642Y-91992380D01*
X123442928Y-92992380D02*
X123442928Y-91992380D01*
X124490547Y-92325714D02*
X124490547Y-92992380D01*
X124252452Y-91944761D02*
X124014357Y-92659047D01*
X124633404Y-92659047D01*
X124966738Y-92087619D02*
X125014357Y-92040000D01*
X125109595Y-91992380D01*
X125347690Y-91992380D01*
X125442928Y-92040000D01*
X125490547Y-92087619D01*
X125538166Y-92182857D01*
X125538166Y-92278095D01*
X125490547Y-92420952D01*
X124919119Y-92992380D01*
X125538166Y-92992380D01*
X125871500Y-91992380D02*
X126490547Y-91992380D01*
X126157214Y-92373333D01*
X126300071Y-92373333D01*
X126395309Y-92420952D01*
X126442928Y-92468571D01*
X126490547Y-92563809D01*
X126490547Y-92801904D01*
X126442928Y-92897142D01*
X126395309Y-92944761D01*
X126300071Y-92992380D01*
X126014357Y-92992380D01*
X125919119Y-92944761D01*
X125871500Y-92897142D01*
X126871500Y-92087619D02*
X126919119Y-92040000D01*
X127014357Y-91992380D01*
X127252452Y-91992380D01*
X127347690Y-92040000D01*
X127395309Y-92087619D01*
X127442928Y-92182857D01*
X127442928Y-92278095D01*
X127395309Y-92420952D01*
X126823880Y-92992380D01*
X127442928Y-92992380D01*
X127871500Y-92992380D02*
X127871500Y-91992380D01*
X127871500Y-92468571D02*
X128442928Y-92468571D01*
X128442928Y-92992380D02*
X128442928Y-91992380D01*
X128919119Y-92611428D02*
X129681023Y-92611428D01*
X130633404Y-91992380D02*
X130157214Y-91992380D01*
X130109595Y-92468571D01*
X130157214Y-92420952D01*
X130252452Y-92373333D01*
X130490547Y-92373333D01*
X130585785Y-92420952D01*
X130633404Y-92468571D01*
X130681023Y-92563809D01*
X130681023Y-92801904D01*
X130633404Y-92897142D01*
X130585785Y-92944761D01*
X130490547Y-92992380D01*
X130252452Y-92992380D01*
X130157214Y-92944761D01*
X130109595Y-92897142D01*
X131538166Y-91992380D02*
X131347690Y-91992380D01*
X131252452Y-92040000D01*
X131204833Y-92087619D01*
X131109595Y-92230476D01*
X131061976Y-92420952D01*
X131061976Y-92801904D01*
X131109595Y-92897142D01*
X131157214Y-92944761D01*
X131252452Y-92992380D01*
X131442928Y-92992380D01*
X131538166Y-92944761D01*
X131585785Y-92897142D01*
X131633404Y-92801904D01*
X131633404Y-92563809D01*
X131585785Y-92468571D01*
X131538166Y-92420952D01*
X131442928Y-92373333D01*
X131252452Y-92373333D01*
X131157214Y-92420952D01*
X131109595Y-92468571D01*
X131061976Y-92563809D01*
X132728642Y-93087619D02*
X132633404Y-93040000D01*
X132538166Y-92944761D01*
X132395309Y-92801904D01*
X132300071Y-92754285D01*
X132204833Y-92754285D01*
X132252452Y-92992380D02*
X132157214Y-92944761D01*
X132061976Y-92849523D01*
X132014357Y-92659047D01*
X132014357Y-92325714D01*
X132061976Y-92135238D01*
X132157214Y-92040000D01*
X132252452Y-91992380D01*
X132442928Y-91992380D01*
X132538166Y-92040000D01*
X132633404Y-92135238D01*
X132681023Y-92325714D01*
X132681023Y-92659047D01*
X132633404Y-92849523D01*
X132538166Y-92944761D01*
X132442928Y-92992380D01*
X132252452Y-92992380D01*
X124109595Y-94602380D02*
X124109595Y-93602380D01*
X124442928Y-94316666D01*
X124776261Y-93602380D01*
X124776261Y-94602380D01*
X125252452Y-94602380D02*
X125252452Y-93935714D01*
X125252452Y-93602380D02*
X125204833Y-93650000D01*
X125252452Y-93697619D01*
X125300071Y-93650000D01*
X125252452Y-93602380D01*
X125252452Y-93697619D01*
X125728642Y-93935714D02*
X125728642Y-94602380D01*
X125728642Y-94030952D02*
X125776261Y-93983333D01*
X125871500Y-93935714D01*
X126014357Y-93935714D01*
X126109595Y-93983333D01*
X126157214Y-94078571D01*
X126157214Y-94602380D01*
X126633404Y-94602380D02*
X126633404Y-93935714D01*
X126633404Y-93602380D02*
X126585785Y-93650000D01*
X126633404Y-93697619D01*
X126681023Y-93650000D01*
X126633404Y-93602380D01*
X126633404Y-93697619D01*
X127871500Y-94602380D02*
X127871500Y-93602380D01*
X128204833Y-94316666D01*
X128538166Y-93602380D01*
X128538166Y-94602380D01*
X129157214Y-94602380D02*
X129061976Y-94554761D01*
X129014357Y-94507142D01*
X128966738Y-94411904D01*
X128966738Y-94126190D01*
X129014357Y-94030952D01*
X129061976Y-93983333D01*
X129157214Y-93935714D01*
X129300071Y-93935714D01*
X129395309Y-93983333D01*
X129442928Y-94030952D01*
X129490547Y-94126190D01*
X129490547Y-94411904D01*
X129442928Y-94507142D01*
X129395309Y-94554761D01*
X129300071Y-94602380D01*
X129157214Y-94602380D01*
X130347690Y-94602380D02*
X130347690Y-93602380D01*
X130347690Y-94554761D02*
X130252452Y-94602380D01*
X130061976Y-94602380D01*
X129966738Y-94554761D01*
X129919119Y-94507142D01*
X129871500Y-94411904D01*
X129871500Y-94126190D01*
X129919119Y-94030952D01*
X129966738Y-93983333D01*
X130061976Y-93935714D01*
X130252452Y-93935714D01*
X130347690Y-93983333D01*
X131252452Y-93935714D02*
X131252452Y-94602380D01*
X130823880Y-93935714D02*
X130823880Y-94459523D01*
X130871500Y-94554761D01*
X130966738Y-94602380D01*
X131109595Y-94602380D01*
X131204833Y-94554761D01*
X131252452Y-94507142D01*
X131871500Y-94602380D02*
X131776261Y-94554761D01*
X131728642Y-94459523D01*
X131728642Y-93602380D01*
X132633404Y-94554761D02*
X132538166Y-94602380D01*
X132347690Y-94602380D01*
X132252452Y-94554761D01*
X132204833Y-94459523D01*
X132204833Y-94078571D01*
X132252452Y-93983333D01*
X132347690Y-93935714D01*
X132538166Y-93935714D01*
X132633404Y-93983333D01*
X132681023Y-94078571D01*
X132681023Y-94173809D01*
X132204833Y-94269047D01*
X164270000Y-95759880D02*
X164270000Y-94759880D01*
X165552380Y-95521785D02*
X164552380Y-95521785D01*
X164552380Y-95283690D01*
X164600000Y-95140833D01*
X164695238Y-95045595D01*
X164790476Y-94997976D01*
X164980952Y-94950357D01*
X165123809Y-94950357D01*
X165314285Y-94997976D01*
X165409523Y-95045595D01*
X165504761Y-95140833D01*
X165552380Y-95283690D01*
X165552380Y-95521785D01*
X164270000Y-94759880D02*
X164270000Y-93807500D01*
X165504761Y-94569404D02*
X165552380Y-94426547D01*
X165552380Y-94188452D01*
X165504761Y-94093214D01*
X165457142Y-94045595D01*
X165361904Y-93997976D01*
X165266666Y-93997976D01*
X165171428Y-94045595D01*
X165123809Y-94093214D01*
X165076190Y-94188452D01*
X165028571Y-94378928D01*
X164980952Y-94474166D01*
X164933333Y-94521785D01*
X164838095Y-94569404D01*
X164742857Y-94569404D01*
X164647619Y-94521785D01*
X164600000Y-94474166D01*
X164552380Y-94378928D01*
X164552380Y-94140833D01*
X164600000Y-93997976D01*
X164270000Y-93807500D02*
X164270000Y-92807500D01*
X165552380Y-92997976D02*
X165076190Y-93331309D01*
X165552380Y-93569404D02*
X164552380Y-93569404D01*
X164552380Y-93188452D01*
X164600000Y-93093214D01*
X164647619Y-93045595D01*
X164742857Y-92997976D01*
X164885714Y-92997976D01*
X164980952Y-93045595D01*
X165028571Y-93093214D01*
X165076190Y-93188452D01*
X165076190Y-93569404D01*
X184524390Y-107869068D02*
X184524390Y-106869068D01*
X185806770Y-107059544D02*
X185330580Y-107392877D01*
X185806770Y-107630972D02*
X184806770Y-107630972D01*
X184806770Y-107250020D01*
X184854390Y-107154782D01*
X184902009Y-107107163D01*
X184997247Y-107059544D01*
X185140104Y-107059544D01*
X185235342Y-107107163D01*
X185282961Y-107154782D01*
X185330580Y-107250020D01*
X185330580Y-107630972D01*
X184524390Y-106869068D02*
X184524390Y-106107163D01*
X184806770Y-106773829D02*
X184806770Y-106202401D01*
X185806770Y-106488115D02*
X184806770Y-106488115D01*
X184524390Y-106107163D02*
X184524390Y-105154782D01*
X185759151Y-105916687D02*
X185806770Y-105773829D01*
X185806770Y-105535734D01*
X185759151Y-105440496D01*
X185711532Y-105392877D01*
X185616294Y-105345258D01*
X185521056Y-105345258D01*
X185425818Y-105392877D01*
X185378199Y-105440496D01*
X185330580Y-105535734D01*
X185282961Y-105726210D01*
X185235342Y-105821448D01*
X185187723Y-105869068D01*
X185092485Y-105916687D01*
X184997247Y-105916687D01*
X184902009Y-105869068D01*
X184854390Y-105821448D01*
X184806770Y-105726210D01*
X184806770Y-105488115D01*
X184854390Y-105345258D01*
X183237142Y-103486976D02*
X183284761Y-103534595D01*
X183332380Y-103677452D01*
X183332380Y-103772690D01*
X183284761Y-103915547D01*
X183189523Y-104010785D01*
X183094285Y-104058404D01*
X182903809Y-104106023D01*
X182760952Y-104106023D01*
X182570476Y-104058404D01*
X182475238Y-104010785D01*
X182380000Y-103915547D01*
X182332380Y-103772690D01*
X182332380Y-103677452D01*
X182380000Y-103534595D01*
X182427619Y-103486976D01*
X183284761Y-103106023D02*
X183332380Y-102963166D01*
X183332380Y-102725071D01*
X183284761Y-102629833D01*
X183237142Y-102582214D01*
X183141904Y-102534595D01*
X183046666Y-102534595D01*
X182951428Y-102582214D01*
X182903809Y-102629833D01*
X182856190Y-102725071D01*
X182808571Y-102915547D01*
X182760952Y-103010785D01*
X182713333Y-103058404D01*
X182618095Y-103106023D01*
X182522857Y-103106023D01*
X182427619Y-103058404D01*
X182380000Y-103010785D01*
X182332380Y-102915547D01*
X182332380Y-102677452D01*
X182380000Y-102534595D01*
X174364390Y-107869068D02*
X174364390Y-106869068D01*
X175646770Y-107630972D02*
X174646770Y-107630972D01*
X174646770Y-107392877D01*
X174694390Y-107250020D01*
X174789628Y-107154782D01*
X174884866Y-107107163D01*
X175075342Y-107059544D01*
X175218199Y-107059544D01*
X175408675Y-107107163D01*
X175503913Y-107154782D01*
X175599151Y-107250020D01*
X175646770Y-107392877D01*
X175646770Y-107630972D01*
X174364390Y-106869068D02*
X174364390Y-105869068D01*
X175551532Y-106059544D02*
X175599151Y-106107163D01*
X175646770Y-106250020D01*
X175646770Y-106345258D01*
X175599151Y-106488115D01*
X175503913Y-106583353D01*
X175408675Y-106630972D01*
X175218199Y-106678591D01*
X175075342Y-106678591D01*
X174884866Y-106630972D01*
X174789628Y-106583353D01*
X174694390Y-106488115D01*
X174646770Y-106345258D01*
X174646770Y-106250020D01*
X174694390Y-106107163D01*
X174742009Y-106059544D01*
X174364390Y-105869068D02*
X174364390Y-104869068D01*
X175646770Y-105630972D02*
X174646770Y-105630972D01*
X174646770Y-105392877D01*
X174694390Y-105250020D01*
X174789628Y-105154782D01*
X174884866Y-105107163D01*
X175075342Y-105059544D01*
X175218199Y-105059544D01*
X175408675Y-105107163D01*
X175503913Y-105154782D01*
X175599151Y-105250020D01*
X175646770Y-105392877D01*
X175646770Y-105630972D01*
X140607023Y-103862142D02*
X140559404Y-103909761D01*
X140416547Y-103957380D01*
X140321309Y-103957380D01*
X140178452Y-103909761D01*
X140083214Y-103814523D01*
X140035595Y-103719285D01*
X139987976Y-103528809D01*
X139987976Y-103385952D01*
X140035595Y-103195476D01*
X140083214Y-103100238D01*
X140178452Y-103005000D01*
X140321309Y-102957380D01*
X140416547Y-102957380D01*
X140559404Y-103005000D01*
X140607023Y-103052619D01*
X141607023Y-103957380D02*
X141273690Y-103481190D01*
X141035595Y-103957380D02*
X141035595Y-102957380D01*
X141416547Y-102957380D01*
X141511785Y-103005000D01*
X141559404Y-103052619D01*
X141607023Y-103147857D01*
X141607023Y-103290714D01*
X141559404Y-103385952D01*
X141511785Y-103433571D01*
X141416547Y-103481190D01*
X141035595Y-103481190D01*
X141940357Y-103957380D02*
X142464166Y-103290714D01*
X141940357Y-103290714D02*
X142464166Y-103957380D01*
X151852380Y-95426547D02*
X151852380Y-94855119D01*
X152852380Y-95140833D02*
X151852380Y-95140833D01*
X151852380Y-94617023D02*
X152852380Y-93950357D01*
X151852380Y-93950357D02*
X152852380Y-94617023D01*
X152852380Y-93569404D02*
X151852380Y-93569404D01*
X151852380Y-93331309D01*
X151900000Y-93188452D01*
X151995238Y-93093214D01*
X152090476Y-93045595D01*
X152280952Y-92997976D01*
X152423809Y-92997976D01*
X152614285Y-93045595D01*
X152709523Y-93093214D01*
X152804761Y-93188452D01*
X152852380Y-93331309D01*
X152852380Y-93569404D01*
X187130000Y-95807500D02*
X187130000Y-94807500D01*
X188412380Y-95569404D02*
X187412380Y-95569404D01*
X187412380Y-95331309D01*
X187460000Y-95188452D01*
X187555238Y-95093214D01*
X187650476Y-95045595D01*
X187840952Y-94997976D01*
X187983809Y-94997976D01*
X188174285Y-95045595D01*
X188269523Y-95093214D01*
X188364761Y-95188452D01*
X188412380Y-95331309D01*
X188412380Y-95569404D01*
X187130000Y-94807500D02*
X187130000Y-93807500D01*
X188317142Y-93997976D02*
X188364761Y-94045595D01*
X188412380Y-94188452D01*
X188412380Y-94283690D01*
X188364761Y-94426547D01*
X188269523Y-94521785D01*
X188174285Y-94569404D01*
X187983809Y-94617023D01*
X187840952Y-94617023D01*
X187650476Y-94569404D01*
X187555238Y-94521785D01*
X187460000Y-94426547D01*
X187412380Y-94283690D01*
X187412380Y-94188452D01*
X187460000Y-94045595D01*
X187507619Y-93997976D01*
X187130000Y-93807500D02*
X187130000Y-92807500D01*
X188412380Y-93569404D02*
X187412380Y-93569404D01*
X187412380Y-93331309D01*
X187460000Y-93188452D01*
X187555238Y-93093214D01*
X187650476Y-93045595D01*
X187840952Y-92997976D01*
X187983809Y-92997976D01*
X188174285Y-93045595D01*
X188269523Y-93093214D01*
X188364761Y-93188452D01*
X188412380Y-93331309D01*
X188412380Y-93569404D01*
X171890000Y-107852500D02*
X171890000Y-106852500D01*
X173172380Y-107042976D02*
X172696190Y-107376309D01*
X173172380Y-107614404D02*
X172172380Y-107614404D01*
X172172380Y-107233452D01*
X172220000Y-107138214D01*
X172267619Y-107090595D01*
X172362857Y-107042976D01*
X172505714Y-107042976D01*
X172600952Y-107090595D01*
X172648571Y-107138214D01*
X172696190Y-107233452D01*
X172696190Y-107614404D01*
X171890000Y-106852500D02*
X171890000Y-106376309D01*
X173172380Y-106614404D02*
X172172380Y-106614404D01*
X172172380Y-95426547D02*
X172172380Y-94855119D01*
X173172380Y-95140833D02*
X172172380Y-95140833D01*
X172172380Y-94617023D02*
X173172380Y-93950357D01*
X172172380Y-93950357D02*
X173172380Y-94617023D01*
X173172380Y-93569404D02*
X172172380Y-93569404D01*
X172172380Y-93331309D01*
X172220000Y-93188452D01*
X172315238Y-93093214D01*
X172410476Y-93045595D01*
X172600952Y-92997976D01*
X172743809Y-92997976D01*
X172934285Y-93045595D01*
X173029523Y-93093214D01*
X173124761Y-93188452D01*
X173172380Y-93331309D01*
X173172380Y-93569404D01*
X140607023Y-101703142D02*
X140559404Y-101750761D01*
X140416547Y-101798380D01*
X140321309Y-101798380D01*
X140178452Y-101750761D01*
X140083214Y-101655523D01*
X140035595Y-101560285D01*
X139987976Y-101369809D01*
X139987976Y-101226952D01*
X140035595Y-101036476D01*
X140083214Y-100941238D01*
X140178452Y-100846000D01*
X140321309Y-100798380D01*
X140416547Y-100798380D01*
X140559404Y-100846000D01*
X140607023Y-100893619D01*
X140892738Y-100798380D02*
X141464166Y-100798380D01*
X141178452Y-101798380D02*
X141178452Y-100798380D01*
X141702261Y-101798380D02*
X142226071Y-101131714D01*
X141702261Y-101131714D02*
X142226071Y-101798380D01*
X114641333Y-105735380D02*
X114308000Y-105259190D01*
X114069904Y-105735380D02*
X114069904Y-104735380D01*
X114450857Y-104735380D01*
X114546095Y-104783000D01*
X114593714Y-104830619D01*
X114641333Y-104925857D01*
X114641333Y-105068714D01*
X114593714Y-105163952D01*
X114546095Y-105211571D01*
X114450857Y-105259190D01*
X114069904Y-105259190D01*
X115212761Y-105163952D02*
X115117523Y-105116333D01*
X115069904Y-105068714D01*
X115022285Y-104973476D01*
X115022285Y-104925857D01*
X115069904Y-104830619D01*
X115117523Y-104783000D01*
X115212761Y-104735380D01*
X115403238Y-104735380D01*
X115498476Y-104783000D01*
X115546095Y-104830619D01*
X115593714Y-104925857D01*
X115593714Y-104973476D01*
X115546095Y-105068714D01*
X115498476Y-105116333D01*
X115403238Y-105163952D01*
X115212761Y-105163952D01*
X115117523Y-105211571D01*
X115069904Y-105259190D01*
X115022285Y-105354428D01*
X115022285Y-105544904D01*
X115069904Y-105640142D01*
X115117523Y-105687761D01*
X115212761Y-105735380D01*
X115403238Y-105735380D01*
X115498476Y-105687761D01*
X115546095Y-105640142D01*
X115593714Y-105544904D01*
X115593714Y-105354428D01*
X115546095Y-105259190D01*
X115498476Y-105211571D01*
X115403238Y-105163952D01*
X106513333Y-93637142D02*
X106465714Y-93684761D01*
X106322857Y-93732380D01*
X106227619Y-93732380D01*
X106084761Y-93684761D01*
X105989523Y-93589523D01*
X105941904Y-93494285D01*
X105894285Y-93303809D01*
X105894285Y-93160952D01*
X105941904Y-92970476D01*
X105989523Y-92875238D01*
X106084761Y-92780000D01*
X106227619Y-92732380D01*
X106322857Y-92732380D01*
X106465714Y-92780000D01*
X106513333Y-92827619D01*
X107465714Y-93732380D02*
X106894285Y-93732380D01*
X107180000Y-93732380D02*
X107180000Y-92732380D01*
X107084761Y-92875238D01*
X106989523Y-92970476D01*
X106894285Y-93018095D01*
X114641333Y-101671380D02*
X114308000Y-101195190D01*
X114069904Y-101671380D02*
X114069904Y-100671380D01*
X114450857Y-100671380D01*
X114546095Y-100719000D01*
X114593714Y-100766619D01*
X114641333Y-100861857D01*
X114641333Y-101004714D01*
X114593714Y-101099952D01*
X114546095Y-101147571D01*
X114450857Y-101195190D01*
X114069904Y-101195190D01*
X115498476Y-100671380D02*
X115308000Y-100671380D01*
X115212761Y-100719000D01*
X115165142Y-100766619D01*
X115069904Y-100909476D01*
X115022285Y-101099952D01*
X115022285Y-101480904D01*
X115069904Y-101576142D01*
X115117523Y-101623761D01*
X115212761Y-101671380D01*
X115403238Y-101671380D01*
X115498476Y-101623761D01*
X115546095Y-101576142D01*
X115593714Y-101480904D01*
X115593714Y-101242809D01*
X115546095Y-101147571D01*
X115498476Y-101099952D01*
X115403238Y-101052333D01*
X115212761Y-101052333D01*
X115117523Y-101099952D01*
X115069904Y-101147571D01*
X115022285Y-101242809D01*
X114641333Y-97607380D02*
X114308000Y-97131190D01*
X114069904Y-97607380D02*
X114069904Y-96607380D01*
X114450857Y-96607380D01*
X114546095Y-96655000D01*
X114593714Y-96702619D01*
X114641333Y-96797857D01*
X114641333Y-96940714D01*
X114593714Y-97035952D01*
X114546095Y-97083571D01*
X114450857Y-97131190D01*
X114069904Y-97131190D01*
X115498476Y-96940714D02*
X115498476Y-97607380D01*
X115260380Y-96559761D02*
X115022285Y-97274047D01*
X115641333Y-97274047D01*
X114641333Y-95575380D02*
X114308000Y-95099190D01*
X114069904Y-95575380D02*
X114069904Y-94575380D01*
X114450857Y-94575380D01*
X114546095Y-94623000D01*
X114593714Y-94670619D01*
X114641333Y-94765857D01*
X114641333Y-94908714D01*
X114593714Y-95003952D01*
X114546095Y-95051571D01*
X114450857Y-95099190D01*
X114069904Y-95099190D01*
X114974666Y-94575380D02*
X115593714Y-94575380D01*
X115260380Y-94956333D01*
X115403238Y-94956333D01*
X115498476Y-95003952D01*
X115546095Y-95051571D01*
X115593714Y-95146809D01*
X115593714Y-95384904D01*
X115546095Y-95480142D01*
X115498476Y-95527761D01*
X115403238Y-95575380D01*
X115117523Y-95575380D01*
X115022285Y-95527761D01*
X114974666Y-95480142D01*
X105918095Y-107148380D02*
X105918095Y-107957904D01*
X105965714Y-108053142D01*
X106013333Y-108100761D01*
X106108571Y-108148380D01*
X106299047Y-108148380D01*
X106394285Y-108100761D01*
X106441904Y-108053142D01*
X106489523Y-107957904D01*
X106489523Y-107148380D01*
X107489523Y-108148380D02*
X106918095Y-108148380D01*
X107203809Y-108148380D02*
X107203809Y-107148380D01*
X107108571Y-107291238D01*
X107013333Y-107386476D01*
X106918095Y-107434095D01*
X114641333Y-93519380D02*
X114308000Y-93043190D01*
X114069904Y-93519380D02*
X114069904Y-92519380D01*
X114450857Y-92519380D01*
X114546095Y-92567000D01*
X114593714Y-92614619D01*
X114641333Y-92709857D01*
X114641333Y-92852714D01*
X114593714Y-92947952D01*
X114546095Y-92995571D01*
X114450857Y-93043190D01*
X114069904Y-93043190D01*
X115022285Y-92614619D02*
X115069904Y-92567000D01*
X115165142Y-92519380D01*
X115403238Y-92519380D01*
X115498476Y-92567000D01*
X115546095Y-92614619D01*
X115593714Y-92709857D01*
X115593714Y-92805095D01*
X115546095Y-92947952D01*
X114974666Y-93519380D01*
X115593714Y-93519380D01*
X114641333Y-103703380D02*
X114308000Y-103227190D01*
X114069904Y-103703380D02*
X114069904Y-102703380D01*
X114450857Y-102703380D01*
X114546095Y-102751000D01*
X114593714Y-102798619D01*
X114641333Y-102893857D01*
X114641333Y-103036714D01*
X114593714Y-103131952D01*
X114546095Y-103179571D01*
X114450857Y-103227190D01*
X114069904Y-103227190D01*
X114974666Y-102703380D02*
X115641333Y-102703380D01*
X115212761Y-103703380D01*
X114641333Y-99639380D02*
X114308000Y-99163190D01*
X114069904Y-99639380D02*
X114069904Y-98639380D01*
X114450857Y-98639380D01*
X114546095Y-98687000D01*
X114593714Y-98734619D01*
X114641333Y-98829857D01*
X114641333Y-98972714D01*
X114593714Y-99067952D01*
X114546095Y-99115571D01*
X114450857Y-99163190D01*
X114069904Y-99163190D01*
X115546095Y-98639380D02*
X115069904Y-98639380D01*
X115022285Y-99115571D01*
X115069904Y-99067952D01*
X115165142Y-99020333D01*
X115403238Y-99020333D01*
X115498476Y-99067952D01*
X115546095Y-99115571D01*
X115593714Y-99210809D01*
X115593714Y-99448904D01*
X115546095Y-99544142D01*
X115498476Y-99591761D01*
X115403238Y-99639380D01*
X115165142Y-99639380D01*
X115069904Y-99591761D01*
X115022285Y-99544142D01*
X114641333Y-107767380D02*
X114308000Y-107291190D01*
X114069904Y-107767380D02*
X114069904Y-106767380D01*
X114450857Y-106767380D01*
X114546095Y-106815000D01*
X114593714Y-106862619D01*
X114641333Y-106957857D01*
X114641333Y-107100714D01*
X114593714Y-107195952D01*
X114546095Y-107243571D01*
X114450857Y-107291190D01*
X114069904Y-107291190D01*
X115117523Y-107767380D02*
X115308000Y-107767380D01*
X115403238Y-107719761D01*
X115450857Y-107672142D01*
X115546095Y-107529285D01*
X115593714Y-107338809D01*
X115593714Y-106957857D01*
X115546095Y-106862619D01*
X115498476Y-106815000D01*
X115403238Y-106767380D01*
X115212761Y-106767380D01*
X115117523Y-106815000D01*
X115069904Y-106862619D01*
X115022285Y-106957857D01*
X115022285Y-107195952D01*
X115069904Y-107291190D01*
X115117523Y-107338809D01*
X115212761Y-107386428D01*
X115403238Y-107386428D01*
X115498476Y-107338809D01*
X115546095Y-107291190D01*
X115593714Y-107195952D01*
X111339333Y-97258252D02*
X111006000Y-96782062D01*
X110767904Y-97258252D02*
X110767904Y-96258252D01*
X111148857Y-96258252D01*
X111244095Y-96305872D01*
X111291714Y-96353491D01*
X111339333Y-96448729D01*
X111339333Y-96591586D01*
X111291714Y-96686824D01*
X111244095Y-96734443D01*
X111148857Y-96782062D01*
X110767904Y-96782062D01*
X112291714Y-97258252D02*
X111720285Y-97258252D01*
X112006000Y-97258252D02*
X112006000Y-96258252D01*
X111910761Y-96401110D01*
X111815523Y-96496348D01*
X111720285Y-96543967D01*
D11*
X136160000Y-97988000D02*
X139020000Y-97988000D01*
X139020000Y-97988000D02*
X139020000Y-96068000D01*
X139020000Y-96068000D02*
X136160000Y-96068000D01*
X117374936Y-104572000D02*
X117829064Y-104572000D01*
X117374936Y-106042000D02*
X117829064Y-106042000D01*
X106418748Y-94225000D02*
X106941252Y-94225000D01*
X106418748Y-95695000D02*
X106941252Y-95695000D01*
X117374936Y-100508000D02*
X117829064Y-100508000D01*
X117374936Y-101978000D02*
X117829064Y-101978000D01*
X117374936Y-96444000D02*
X117829064Y-96444000D01*
X117374936Y-97914000D02*
X117829064Y-97914000D01*
X117374936Y-94412000D02*
X117829064Y-94412000D01*
X117374936Y-95882000D02*
X117829064Y-95882000D01*
X106680000Y-96540000D02*
X103230000Y-96540000D01*
X106680000Y-106660000D02*
X108630000Y-106660000D01*
X106680000Y-106660000D02*
X104730000Y-106660000D01*
X106680000Y-96540000D02*
X108630000Y-96540000D01*
D12*
X100138000Y-96305000D02*
X99884000Y-96305000D01*
X99884000Y-104355000D02*
X100138000Y-104355000D01*
X133666000Y-114554000D02*
X133666000Y-86106000D01*
X100138000Y-114554000D02*
X133666000Y-114554000D01*
X100138000Y-86106000D02*
X100138000Y-96305000D01*
X133666000Y-86106000D02*
X100138000Y-86106000D01*
X100138000Y-104355000D02*
X100138000Y-114554000D01*
X99884000Y-96305000D02*
X99884000Y-104355000D01*
D11*
X139020000Y-104465000D02*
X139020000Y-102545000D01*
X136160000Y-104465000D02*
X139020000Y-104465000D01*
X139020000Y-102545000D02*
X136160000Y-102545000D01*
X139020000Y-100386000D02*
X136160000Y-100386000D01*
X139020000Y-102306000D02*
X139020000Y-100386000D01*
X136160000Y-102306000D02*
X139020000Y-102306000D01*
X139020000Y-91750000D02*
X136160000Y-91750000D01*
X136160000Y-93670000D02*
X139020000Y-93670000D01*
X139020000Y-93670000D02*
X139020000Y-91750000D01*
X139020000Y-106624000D02*
X139020000Y-104704000D01*
X139020000Y-104704000D02*
X136160000Y-104704000D01*
X136160000Y-106624000D02*
X139020000Y-106624000D01*
X117374936Y-93826000D02*
X117829064Y-93826000D01*
X117374936Y-92356000D02*
X117829064Y-92356000D01*
X139020000Y-100147000D02*
X139020000Y-98227000D01*
X139020000Y-98227000D02*
X136160000Y-98227000D01*
X136160000Y-100147000D02*
X139020000Y-100147000D01*
X139020000Y-93909000D02*
X136160000Y-93909000D01*
X139020000Y-95829000D02*
X139020000Y-93909000D01*
X136160000Y-95829000D02*
X139020000Y-95829000D01*
X117374936Y-102540000D02*
X117829064Y-102540000D01*
X117374936Y-104010000D02*
X117829064Y-104010000D01*
X117374936Y-99946000D02*
X117829064Y-99946000D01*
X117374936Y-98476000D02*
X117829064Y-98476000D01*
X139020000Y-106863000D02*
X136160000Y-106863000D01*
X136160000Y-108783000D02*
X139020000Y-108783000D01*
X139020000Y-108783000D02*
X139020000Y-106863000D01*
X117374936Y-108074000D02*
X117829064Y-108074000D01*
X117374936Y-106604000D02*
X117829064Y-106604000D01*
X110771000Y-94477064D02*
X110771000Y-94022936D01*
X112241000Y-94477064D02*
X112241000Y-94022936D01*
%LPC*%
D13*
X138185000Y-97028000D03*
X136135000Y-97028000D03*
D14*
X116602000Y-105307000D03*
X118602000Y-105307000D03*
D15*
X105642500Y-94960000D03*
X107717500Y-94960000D03*
D14*
X116602000Y-101243000D03*
X118602000Y-101243000D03*
X116602000Y-97179000D03*
X118602000Y-97179000D03*
X116602000Y-95147000D03*
X118602000Y-95147000D03*
D16*
X104205000Y-97155000D03*
X104205000Y-98425000D03*
X104205000Y-99695000D03*
X104205000Y-100965000D03*
X104205000Y-102235000D03*
X104205000Y-103505000D03*
X104205000Y-104775000D03*
X104205000Y-106045000D03*
X109155000Y-106045000D03*
X109155000Y-104775000D03*
X109155000Y-103505000D03*
X109155000Y-102235000D03*
X109155000Y-100965000D03*
X109155000Y-99695000D03*
X109155000Y-98425000D03*
X109155000Y-97155000D03*
D17*
X101600000Y-110505000D03*
D18*
X101600000Y-113045000D03*
X104140000Y-110505000D03*
X104140000Y-113045000D03*
X106680000Y-110505000D03*
X106680000Y-113045000D03*
X109220000Y-110505000D03*
X109220000Y-113045000D03*
X111760000Y-110505000D03*
X111760000Y-113045000D03*
X114300000Y-110505000D03*
X114300000Y-113045000D03*
X116840000Y-110505000D03*
X116840000Y-113045000D03*
X119380000Y-110505000D03*
X119380000Y-113045000D03*
X121920000Y-110505000D03*
X121920000Y-113045000D03*
X124460000Y-110505000D03*
X124460000Y-113045000D03*
X127000000Y-110505000D03*
X127000000Y-113045000D03*
X129540000Y-110505000D03*
X129540000Y-113045000D03*
X132080000Y-110505000D03*
X132080000Y-113045000D03*
D17*
X101600000Y-87615000D03*
D18*
X101600000Y-90155000D03*
X104140000Y-87615000D03*
X104140000Y-90155000D03*
X106680000Y-87615000D03*
X106680000Y-90155000D03*
X109220000Y-87615000D03*
X109220000Y-90155000D03*
X111760000Y-87615000D03*
X111760000Y-90155000D03*
X114300000Y-87615000D03*
X114300000Y-90155000D03*
X116840000Y-87615000D03*
X116840000Y-90155000D03*
X119380000Y-87615000D03*
X119380000Y-90155000D03*
X121920000Y-87615000D03*
X121920000Y-90155000D03*
X124460000Y-87615000D03*
X124460000Y-90155000D03*
X127000000Y-87615000D03*
X127000000Y-90155000D03*
X129540000Y-87615000D03*
X129540000Y-90155000D03*
X132080000Y-87615000D03*
X132080000Y-90155000D03*
D13*
X138185000Y-103505000D03*
X136135000Y-103505000D03*
X138185000Y-101346000D03*
X136135000Y-101346000D03*
X138185000Y-92710000D03*
X136135000Y-92710000D03*
X138185000Y-105664000D03*
X136135000Y-105664000D03*
D14*
X116602000Y-93091000D03*
X118602000Y-93091000D03*
D13*
X138185000Y-99187000D03*
X136135000Y-99187000D03*
X138185000Y-94869000D03*
X136135000Y-94869000D03*
D14*
X116602000Y-103275000D03*
X118602000Y-103275000D03*
X116602000Y-99211000D03*
X118602000Y-99211000D03*
D13*
X138185000Y-107823000D03*
X136135000Y-107823000D03*
D14*
X116602000Y-107339000D03*
X118602000Y-107339000D03*
D19*
X111506000Y-95250000D03*
X111506000Y-93250000D03*
D20*
X144780000Y-91440000D03*
D21*
X147320000Y-91440000D03*
X149860000Y-91440000D03*
X152400000Y-91440000D03*
X154940000Y-91440000D03*
X157480000Y-91440000D03*
X160020000Y-91440000D03*
X162560000Y-91440000D03*
X165100000Y-91440000D03*
X167640000Y-91440000D03*
X170180000Y-91440000D03*
X172720000Y-91440000D03*
X175260000Y-91440000D03*
X177800000Y-91440000D03*
X180340000Y-91440000D03*
X182880000Y-91440000D03*
X185420000Y-91440000D03*
X187960000Y-91440000D03*
X190500000Y-91440000D03*
X193040000Y-91440000D03*
D20*
X144780000Y-109195000D03*
D21*
X147320000Y-109195000D03*
X149860000Y-109195000D03*
X152400000Y-109195000D03*
X154940000Y-109195000D03*
X157480000Y-109195000D03*
X160020000Y-109195000D03*
X162560000Y-109195000D03*
X165100000Y-109195000D03*
X167640000Y-109195000D03*
X170180000Y-109195000D03*
X172720000Y-109195000D03*
X175260000Y-109195000D03*
X177800000Y-109195000D03*
X180340000Y-109195000D03*
X182880000Y-109195000D03*
X185420000Y-109195000D03*
X187960000Y-109195000D03*
X190500000Y-109195000D03*
X193040000Y-109195000D03*
M02*
