G04 #@! TF.GenerationSoftware,KiCad,Pcbnew,(6.0.11-0)*
G04 #@! TF.CreationDate,2023-06-19T16:15:23+02:00*
G04 #@! TF.ProjectId,ft4232h_mini_module,66743432-3332-4685-9f6d-696e695f6d6f,REV*
G04 #@! TF.SameCoordinates,Original*
G04 #@! TF.FileFunction,Legend,Bot*
G04 #@! TF.FilePolarity,Positive*
%FSLAX46Y46*%
G04 Gerber Fmt 4.6, Leading zero omitted, Abs format (unit mm)*
G04 Created by KiCad (PCBNEW (6.0.11-0)) date 2023-06-19 16:15:23*
%MOMM*%
%LPD*%
G01*
G04 APERTURE LIST*
%ADD10C,0.150000*%
%ADD11C,1.562100*%
%ADD12R,1.562100X1.562100*%
%ADD13O,1.700000X1.700000*%
%ADD14R,1.700000X1.700000*%
G04 APERTURE END LIST*
D10*
X192498071Y-98648571D02*
X192831404Y-98648571D01*
X192831404Y-99172380D02*
X192831404Y-98172380D01*
X192355214Y-98172380D01*
X192117119Y-98172380D02*
X191545690Y-98172380D01*
X191831404Y-99172380D02*
X191831404Y-98172380D01*
X190783785Y-98505714D02*
X190783785Y-99172380D01*
X191021880Y-98124761D02*
X191259976Y-98839047D01*
X190640928Y-98839047D01*
X190307595Y-98267619D02*
X190259976Y-98220000D01*
X190164738Y-98172380D01*
X189926642Y-98172380D01*
X189831404Y-98220000D01*
X189783785Y-98267619D01*
X189736166Y-98362857D01*
X189736166Y-98458095D01*
X189783785Y-98600952D01*
X190355214Y-99172380D01*
X189736166Y-99172380D01*
X189402833Y-98172380D02*
X188783785Y-98172380D01*
X189117119Y-98553333D01*
X188974261Y-98553333D01*
X188879023Y-98600952D01*
X188831404Y-98648571D01*
X188783785Y-98743809D01*
X188783785Y-98981904D01*
X188831404Y-99077142D01*
X188879023Y-99124761D01*
X188974261Y-99172380D01*
X189259976Y-99172380D01*
X189355214Y-99124761D01*
X189402833Y-99077142D01*
X188402833Y-98267619D02*
X188355214Y-98220000D01*
X188259976Y-98172380D01*
X188021880Y-98172380D01*
X187926642Y-98220000D01*
X187879023Y-98267619D01*
X187831404Y-98362857D01*
X187831404Y-98458095D01*
X187879023Y-98600952D01*
X188450452Y-99172380D01*
X187831404Y-99172380D01*
X187402833Y-99172380D02*
X187402833Y-98172380D01*
X187402833Y-98648571D02*
X186831404Y-98648571D01*
X186831404Y-99172380D02*
X186831404Y-98172380D01*
X185593309Y-99172380D02*
X185593309Y-98172380D01*
X185259976Y-98886666D01*
X184926642Y-98172380D01*
X184926642Y-99172380D01*
X184450452Y-99172380D02*
X184450452Y-98505714D01*
X184450452Y-98172380D02*
X184498071Y-98220000D01*
X184450452Y-98267619D01*
X184402833Y-98220000D01*
X184450452Y-98172380D01*
X184450452Y-98267619D01*
X183974261Y-98505714D02*
X183974261Y-99172380D01*
X183974261Y-98600952D02*
X183926642Y-98553333D01*
X183831404Y-98505714D01*
X183688547Y-98505714D01*
X183593309Y-98553333D01*
X183545690Y-98648571D01*
X183545690Y-99172380D01*
X183069500Y-99172380D02*
X183069500Y-98505714D01*
X183069500Y-98172380D02*
X183117119Y-98220000D01*
X183069500Y-98267619D01*
X183021880Y-98220000D01*
X183069500Y-98172380D01*
X183069500Y-98267619D01*
X181831404Y-99172380D02*
X181831404Y-98172380D01*
X181498071Y-98886666D01*
X181164738Y-98172380D01*
X181164738Y-99172380D01*
X180545690Y-99172380D02*
X180640928Y-99124761D01*
X180688547Y-99077142D01*
X180736166Y-98981904D01*
X180736166Y-98696190D01*
X180688547Y-98600952D01*
X180640928Y-98553333D01*
X180545690Y-98505714D01*
X180402833Y-98505714D01*
X180307595Y-98553333D01*
X180259976Y-98600952D01*
X180212357Y-98696190D01*
X180212357Y-98981904D01*
X180259976Y-99077142D01*
X180307595Y-99124761D01*
X180402833Y-99172380D01*
X180545690Y-99172380D01*
X179355214Y-99172380D02*
X179355214Y-98172380D01*
X179355214Y-99124761D02*
X179450452Y-99172380D01*
X179640928Y-99172380D01*
X179736166Y-99124761D01*
X179783785Y-99077142D01*
X179831404Y-98981904D01*
X179831404Y-98696190D01*
X179783785Y-98600952D01*
X179736166Y-98553333D01*
X179640928Y-98505714D01*
X179450452Y-98505714D01*
X179355214Y-98553333D01*
X178450452Y-98505714D02*
X178450452Y-99172380D01*
X178879023Y-98505714D02*
X178879023Y-99029523D01*
X178831404Y-99124761D01*
X178736166Y-99172380D01*
X178593309Y-99172380D01*
X178498071Y-99124761D01*
X178450452Y-99077142D01*
X177831404Y-99172380D02*
X177926642Y-99124761D01*
X177974261Y-99029523D01*
X177974261Y-98172380D01*
X177069500Y-99124761D02*
X177164738Y-99172380D01*
X177355214Y-99172380D01*
X177450452Y-99124761D01*
X177498071Y-99029523D01*
X177498071Y-98648571D01*
X177450452Y-98553333D01*
X177355214Y-98505714D01*
X177164738Y-98505714D01*
X177069500Y-98553333D01*
X177021880Y-98648571D01*
X177021880Y-98743809D01*
X177498071Y-98839047D01*
X175498071Y-98648571D02*
X175355214Y-98696190D01*
X175307595Y-98743809D01*
X175259976Y-98839047D01*
X175259976Y-98981904D01*
X175307595Y-99077142D01*
X175355214Y-99124761D01*
X175450452Y-99172380D01*
X175831404Y-99172380D01*
X175831404Y-98172380D01*
X175498071Y-98172380D01*
X175402833Y-98220000D01*
X175355214Y-98267619D01*
X175307595Y-98362857D01*
X175307595Y-98458095D01*
X175355214Y-98553333D01*
X175402833Y-98600952D01*
X175498071Y-98648571D01*
X175831404Y-98648571D01*
X174831404Y-99172380D02*
X174831404Y-98505714D01*
X174831404Y-98696190D02*
X174783785Y-98600952D01*
X174736166Y-98553333D01*
X174640928Y-98505714D01*
X174545690Y-98505714D01*
X173831404Y-99124761D02*
X173926642Y-99172380D01*
X174117119Y-99172380D01*
X174212357Y-99124761D01*
X174259976Y-99029523D01*
X174259976Y-98648571D01*
X174212357Y-98553333D01*
X174117119Y-98505714D01*
X173926642Y-98505714D01*
X173831404Y-98553333D01*
X173783785Y-98648571D01*
X173783785Y-98743809D01*
X174259976Y-98839047D01*
X172926642Y-99172380D02*
X172926642Y-98648571D01*
X172974261Y-98553333D01*
X173069500Y-98505714D01*
X173259976Y-98505714D01*
X173355214Y-98553333D01*
X172926642Y-99124761D02*
X173021880Y-99172380D01*
X173259976Y-99172380D01*
X173355214Y-99124761D01*
X173402833Y-99029523D01*
X173402833Y-98934285D01*
X173355214Y-98839047D01*
X173259976Y-98791428D01*
X173021880Y-98791428D01*
X172926642Y-98743809D01*
X172450452Y-99172380D02*
X172450452Y-98172380D01*
X172355214Y-98791428D02*
X172069500Y-99172380D01*
X172069500Y-98505714D02*
X172450452Y-98886666D01*
X171498071Y-99172380D02*
X171593309Y-99124761D01*
X171640928Y-99077142D01*
X171688547Y-98981904D01*
X171688547Y-98696190D01*
X171640928Y-98600952D01*
X171593309Y-98553333D01*
X171498071Y-98505714D01*
X171355214Y-98505714D01*
X171259976Y-98553333D01*
X171212357Y-98600952D01*
X171164738Y-98696190D01*
X171164738Y-98981904D01*
X171212357Y-99077142D01*
X171259976Y-99124761D01*
X171355214Y-99172380D01*
X171498071Y-99172380D01*
X170307595Y-98505714D02*
X170307595Y-99172380D01*
X170736166Y-98505714D02*
X170736166Y-99029523D01*
X170688547Y-99124761D01*
X170593309Y-99172380D01*
X170450452Y-99172380D01*
X170355214Y-99124761D01*
X170307595Y-99077142D01*
X169974261Y-98505714D02*
X169593309Y-98505714D01*
X169831404Y-98172380D02*
X169831404Y-99029523D01*
X169783785Y-99124761D01*
X169688547Y-99172380D01*
X169593309Y-99172380D01*
X192879023Y-99877619D02*
X192831404Y-99830000D01*
X192736166Y-99782380D01*
X192498071Y-99782380D01*
X192402833Y-99830000D01*
X192355214Y-99877619D01*
X192307595Y-99972857D01*
X192307595Y-100068095D01*
X192355214Y-100210952D01*
X192926642Y-100782380D01*
X192307595Y-100782380D01*
X191688547Y-99782380D02*
X191593309Y-99782380D01*
X191498071Y-99830000D01*
X191450452Y-99877619D01*
X191402833Y-99972857D01*
X191355214Y-100163333D01*
X191355214Y-100401428D01*
X191402833Y-100591904D01*
X191450452Y-100687142D01*
X191498071Y-100734761D01*
X191593309Y-100782380D01*
X191688547Y-100782380D01*
X191783785Y-100734761D01*
X191831404Y-100687142D01*
X191879023Y-100591904D01*
X191926642Y-100401428D01*
X191926642Y-100163333D01*
X191879023Y-99972857D01*
X191831404Y-99877619D01*
X191783785Y-99830000D01*
X191688547Y-99782380D01*
X190974261Y-99877619D02*
X190926642Y-99830000D01*
X190831404Y-99782380D01*
X190593309Y-99782380D01*
X190498071Y-99830000D01*
X190450452Y-99877619D01*
X190402833Y-99972857D01*
X190402833Y-100068095D01*
X190450452Y-100210952D01*
X191021880Y-100782380D01*
X190402833Y-100782380D01*
X190069500Y-99782380D02*
X189450452Y-99782380D01*
X189783785Y-100163333D01*
X189640928Y-100163333D01*
X189545690Y-100210952D01*
X189498071Y-100258571D01*
X189450452Y-100353809D01*
X189450452Y-100591904D01*
X189498071Y-100687142D01*
X189545690Y-100734761D01*
X189640928Y-100782380D01*
X189926642Y-100782380D01*
X190021880Y-100734761D01*
X190069500Y-100687142D01*
X189021880Y-100401428D02*
X188259976Y-100401428D01*
X187593309Y-99782380D02*
X187498071Y-99782380D01*
X187402833Y-99830000D01*
X187355214Y-99877619D01*
X187307595Y-99972857D01*
X187259976Y-100163333D01*
X187259976Y-100401428D01*
X187307595Y-100591904D01*
X187355214Y-100687142D01*
X187402833Y-100734761D01*
X187498071Y-100782380D01*
X187593309Y-100782380D01*
X187688547Y-100734761D01*
X187736166Y-100687142D01*
X187783785Y-100591904D01*
X187831404Y-100401428D01*
X187831404Y-100163333D01*
X187783785Y-99972857D01*
X187736166Y-99877619D01*
X187688547Y-99830000D01*
X187593309Y-99782380D01*
X186402833Y-99782380D02*
X186593309Y-99782380D01*
X186688547Y-99830000D01*
X186736166Y-99877619D01*
X186831404Y-100020476D01*
X186879023Y-100210952D01*
X186879023Y-100591904D01*
X186831404Y-100687142D01*
X186783785Y-100734761D01*
X186688547Y-100782380D01*
X186498071Y-100782380D01*
X186402833Y-100734761D01*
X186355214Y-100687142D01*
X186307595Y-100591904D01*
X186307595Y-100353809D01*
X186355214Y-100258571D01*
X186402833Y-100210952D01*
X186498071Y-100163333D01*
X186688547Y-100163333D01*
X186783785Y-100210952D01*
X186831404Y-100258571D01*
X186879023Y-100353809D01*
X185879023Y-100401428D02*
X185117119Y-100401428D01*
X184117119Y-100782380D02*
X184688547Y-100782380D01*
X184402833Y-100782380D02*
X184402833Y-99782380D01*
X184498071Y-99925238D01*
X184593309Y-100020476D01*
X184688547Y-100068095D01*
X183640928Y-100782380D02*
X183450452Y-100782380D01*
X183355214Y-100734761D01*
X183307595Y-100687142D01*
X183212357Y-100544285D01*
X183164738Y-100353809D01*
X183164738Y-99972857D01*
X183212357Y-99877619D01*
X183259976Y-99830000D01*
X183355214Y-99782380D01*
X183545690Y-99782380D01*
X183640928Y-99830000D01*
X183688547Y-99877619D01*
X183736166Y-99972857D01*
X183736166Y-100210952D01*
X183688547Y-100306190D01*
X183640928Y-100353809D01*
X183545690Y-100401428D01*
X183355214Y-100401428D01*
X183259976Y-100353809D01*
X183212357Y-100306190D01*
X183164738Y-100210952D01*
X181974261Y-100401428D02*
X181212357Y-100401428D01*
X179402833Y-100782380D02*
X179736166Y-100306190D01*
X179974261Y-100782380D02*
X179974261Y-99782380D01*
X179593309Y-99782380D01*
X179498071Y-99830000D01*
X179450452Y-99877619D01*
X179402833Y-99972857D01*
X179402833Y-100115714D01*
X179450452Y-100210952D01*
X179498071Y-100258571D01*
X179593309Y-100306190D01*
X179974261Y-100306190D01*
X178593309Y-100734761D02*
X178688547Y-100782380D01*
X178879023Y-100782380D01*
X178974261Y-100734761D01*
X179021880Y-100639523D01*
X179021880Y-100258571D01*
X178974261Y-100163333D01*
X178879023Y-100115714D01*
X178688547Y-100115714D01*
X178593309Y-100163333D01*
X178545690Y-100258571D01*
X178545690Y-100353809D01*
X179021880Y-100449047D01*
X178212357Y-100115714D02*
X177974261Y-100782380D01*
X177736166Y-100115714D01*
X176640928Y-100496666D02*
X176164738Y-100496666D01*
X176736166Y-100782380D02*
X176402833Y-99782380D01*
X176069500Y-100782380D01*
X192879023Y-102106666D02*
X192402833Y-102106666D01*
X192974261Y-102392380D02*
X192640928Y-101392380D01*
X192307595Y-102392380D01*
X191545690Y-102392380D02*
X191545690Y-101392380D01*
X191545690Y-102344761D02*
X191640928Y-102392380D01*
X191831404Y-102392380D01*
X191926642Y-102344761D01*
X191974261Y-102297142D01*
X192021880Y-102201904D01*
X192021880Y-101916190D01*
X191974261Y-101820952D01*
X191926642Y-101773333D01*
X191831404Y-101725714D01*
X191640928Y-101725714D01*
X191545690Y-101773333D01*
X191069500Y-102392380D02*
X191069500Y-101725714D01*
X191069500Y-101916190D02*
X191021880Y-101820952D01*
X190974261Y-101773333D01*
X190879023Y-101725714D01*
X190783785Y-101725714D01*
X190450452Y-102392380D02*
X190450452Y-101725714D01*
X190450452Y-101392380D02*
X190498071Y-101440000D01*
X190450452Y-101487619D01*
X190402833Y-101440000D01*
X190450452Y-101392380D01*
X190450452Y-101487619D01*
X189593309Y-102344761D02*
X189688547Y-102392380D01*
X189879023Y-102392380D01*
X189974261Y-102344761D01*
X190021880Y-102249523D01*
X190021880Y-101868571D01*
X189974261Y-101773333D01*
X189879023Y-101725714D01*
X189688547Y-101725714D01*
X189593309Y-101773333D01*
X189545690Y-101868571D01*
X189545690Y-101963809D01*
X190021880Y-102059047D01*
X189117119Y-101725714D02*
X189117119Y-102392380D01*
X189117119Y-101820952D02*
X189069500Y-101773333D01*
X188974261Y-101725714D01*
X188831404Y-101725714D01*
X188736166Y-101773333D01*
X188688547Y-101868571D01*
X188688547Y-102392380D01*
X187450452Y-102392380D02*
X187450452Y-101392380D01*
X186879023Y-102392380D02*
X187307595Y-101820952D01*
X186879023Y-101392380D02*
X187450452Y-101963809D01*
X186307595Y-102392380D02*
X186402833Y-102344761D01*
X186450452Y-102297142D01*
X186498071Y-102201904D01*
X186498071Y-101916190D01*
X186450452Y-101820952D01*
X186402833Y-101773333D01*
X186307595Y-101725714D01*
X186164738Y-101725714D01*
X186069500Y-101773333D01*
X186021880Y-101820952D01*
X185974261Y-101916190D01*
X185974261Y-102201904D01*
X186021880Y-102297142D01*
X186069500Y-102344761D01*
X186164738Y-102392380D01*
X186307595Y-102392380D01*
X185545690Y-102392380D02*
X185545690Y-101392380D01*
X185117119Y-102392380D02*
X185117119Y-101868571D01*
X185164738Y-101773333D01*
X185259976Y-101725714D01*
X185402833Y-101725714D01*
X185498071Y-101773333D01*
X185545690Y-101820952D01*
X184498071Y-102392380D02*
X184593309Y-102344761D01*
X184640928Y-102249523D01*
X184640928Y-101392380D01*
X184117119Y-102392380D02*
X184117119Y-101392380D01*
X184117119Y-101773333D02*
X184021880Y-101725714D01*
X183831404Y-101725714D01*
X183736166Y-101773333D01*
X183688547Y-101820952D01*
X183640928Y-101916190D01*
X183640928Y-102201904D01*
X183688547Y-102297142D01*
X183736166Y-102344761D01*
X183831404Y-102392380D01*
X184021880Y-102392380D01*
X184117119Y-102344761D01*
X182831404Y-102344761D02*
X182926642Y-102392380D01*
X183117119Y-102392380D01*
X183212357Y-102344761D01*
X183259976Y-102249523D01*
X183259976Y-101868571D01*
X183212357Y-101773333D01*
X183117119Y-101725714D01*
X182926642Y-101725714D01*
X182831404Y-101773333D01*
X182783785Y-101868571D01*
X182783785Y-101963809D01*
X183259976Y-102059047D01*
X181926642Y-102344761D02*
X182021880Y-102392380D01*
X182212357Y-102392380D01*
X182307595Y-102344761D01*
X182355214Y-102297142D01*
X182402833Y-102201904D01*
X182402833Y-101916190D01*
X182355214Y-101820952D01*
X182307595Y-101773333D01*
X182212357Y-101725714D01*
X182021880Y-101725714D01*
X181926642Y-101773333D01*
X181498071Y-102392380D02*
X181498071Y-101392380D01*
X181402833Y-102011428D02*
X181117119Y-102392380D01*
X181117119Y-101725714D02*
X181498071Y-102106666D01*
X180307595Y-102344761D02*
X180402833Y-102392380D01*
X180593309Y-102392380D01*
X180688547Y-102344761D01*
X180736166Y-102249523D01*
X180736166Y-101868571D01*
X180688547Y-101773333D01*
X180593309Y-101725714D01*
X180402833Y-101725714D01*
X180307595Y-101773333D01*
X180259976Y-101868571D01*
X180259976Y-101963809D01*
X180736166Y-102059047D01*
X179831404Y-102392380D02*
X179831404Y-101725714D01*
X179831404Y-101916190D02*
X179783785Y-101820952D01*
X179736166Y-101773333D01*
X179640928Y-101725714D01*
X179545690Y-101725714D01*
%LPC*%
D11*
X132080000Y-90155000D03*
X132080000Y-87615000D03*
X129540000Y-90155000D03*
X129540000Y-87615000D03*
X127000000Y-90155000D03*
X127000000Y-87615000D03*
X124460000Y-90155000D03*
X124460000Y-87615000D03*
X121920000Y-90155000D03*
X121920000Y-87615000D03*
X119380000Y-90155000D03*
X119380000Y-87615000D03*
X116840000Y-90155000D03*
X116840000Y-87615000D03*
X114300000Y-90155000D03*
X114300000Y-87615000D03*
X111760000Y-90155000D03*
X111760000Y-87615000D03*
X109220000Y-90155000D03*
X109220000Y-87615000D03*
X106680000Y-90155000D03*
X106680000Y-87615000D03*
X104140000Y-90155000D03*
X104140000Y-87615000D03*
X101600000Y-90155000D03*
D12*
X101600000Y-87615000D03*
D11*
X132080000Y-113045000D03*
X132080000Y-110505000D03*
X129540000Y-113045000D03*
X129540000Y-110505000D03*
X127000000Y-113045000D03*
X127000000Y-110505000D03*
X124460000Y-113045000D03*
X124460000Y-110505000D03*
X121920000Y-113045000D03*
X121920000Y-110505000D03*
X119380000Y-113045000D03*
X119380000Y-110505000D03*
X116840000Y-113045000D03*
X116840000Y-110505000D03*
X114300000Y-113045000D03*
X114300000Y-110505000D03*
X111760000Y-113045000D03*
X111760000Y-110505000D03*
X109220000Y-113045000D03*
X109220000Y-110505000D03*
X106680000Y-113045000D03*
X106680000Y-110505000D03*
X104140000Y-113045000D03*
X104140000Y-110505000D03*
X101600000Y-113045000D03*
D12*
X101600000Y-110505000D03*
D13*
X193040000Y-109195000D03*
X190500000Y-109195000D03*
X187960000Y-109195000D03*
X185420000Y-109195000D03*
X182880000Y-109195000D03*
X180340000Y-109195000D03*
X177800000Y-109195000D03*
X175260000Y-109195000D03*
X172720000Y-109195000D03*
X170180000Y-109195000D03*
X167640000Y-109195000D03*
X165100000Y-109195000D03*
X162560000Y-109195000D03*
X160020000Y-109195000D03*
X157480000Y-109195000D03*
X154940000Y-109195000D03*
X152400000Y-109195000D03*
X149860000Y-109195000D03*
X147320000Y-109195000D03*
D14*
X144780000Y-109195000D03*
D13*
X193040000Y-91440000D03*
X190500000Y-91440000D03*
X187960000Y-91440000D03*
X185420000Y-91440000D03*
X182880000Y-91440000D03*
X180340000Y-91440000D03*
X177800000Y-91440000D03*
X175260000Y-91440000D03*
X172720000Y-91440000D03*
X170180000Y-91440000D03*
X167640000Y-91440000D03*
X165100000Y-91440000D03*
X162560000Y-91440000D03*
X160020000Y-91440000D03*
X157480000Y-91440000D03*
X154940000Y-91440000D03*
X152400000Y-91440000D03*
X149860000Y-91440000D03*
X147320000Y-91440000D03*
D14*
X144780000Y-91440000D03*
M02*
