G04 #@! TF.GenerationSoftware,KiCad,Pcbnew,(6.0.11-0)*
G04 #@! TF.CreationDate,2023-06-19T16:15:23+02:00*
G04 #@! TF.ProjectId,ft4232h_mini_module,66743432-3332-4685-9f6d-696e695f6d6f,REV*
G04 #@! TF.SameCoordinates,Original*
G04 #@! TF.FileFunction,Copper,L1,Top*
G04 #@! TF.FilePolarity,Positive*
%FSLAX46Y46*%
G04 Gerber Fmt 4.6, Leading zero omitted, Abs format (unit mm)*
G04 Created by KiCad (PCBNEW (6.0.11-0)) date 2023-06-19 16:15:23*
%MOMM*%
%LPD*%
G01*
G04 APERTURE LIST*
G04 Aperture macros list*
%AMRoundRect*
0 Rectangle with rounded corners*
0 $1 Rounding radius*
0 $2 $3 $4 $5 $6 $7 $8 $9 X,Y pos of 4 corners*
0 Add a 4 corners polygon primitive as box body*
4,1,4,$2,$3,$4,$5,$6,$7,$8,$9,$2,$3,0*
0 Add four circle primitives for the rounded corners*
1,1,$1+$1,$2,$3*
1,1,$1+$1,$4,$5*
1,1,$1+$1,$6,$7*
1,1,$1+$1,$8,$9*
0 Add four rect primitives between the rounded corners*
20,1,$1+$1,$2,$3,$4,$5,0*
20,1,$1+$1,$4,$5,$6,$7,0*
20,1,$1+$1,$6,$7,$8,$9,0*
20,1,$1+$1,$8,$9,$2,$3,0*%
G04 Aperture macros list end*
G04 #@! TA.AperFunction,ComponentPad*
%ADD10C,1.562100*%
G04 #@! TD*
G04 #@! TA.AperFunction,ComponentPad*
%ADD11R,1.562100X1.562100*%
G04 #@! TD*
G04 #@! TA.AperFunction,ComponentPad*
%ADD12O,1.700000X1.700000*%
G04 #@! TD*
G04 #@! TA.AperFunction,ComponentPad*
%ADD13R,1.700000X1.700000*%
G04 #@! TD*
G04 #@! TA.AperFunction,SMDPad,CuDef*
%ADD14RoundRect,0.150000X-0.825000X-0.150000X0.825000X-0.150000X0.825000X0.150000X-0.825000X0.150000X0*%
G04 #@! TD*
G04 #@! TA.AperFunction,SMDPad,CuDef*
%ADD15RoundRect,0.250000X-0.350000X-0.450000X0.350000X-0.450000X0.350000X0.450000X-0.350000X0.450000X0*%
G04 #@! TD*
G04 #@! TA.AperFunction,SMDPad,CuDef*
%ADD16RoundRect,0.250000X0.450000X-0.350000X0.450000X0.350000X-0.450000X0.350000X-0.450000X-0.350000X0*%
G04 #@! TD*
G04 #@! TA.AperFunction,SMDPad,CuDef*
%ADD17RoundRect,0.250000X0.325000X0.450000X-0.325000X0.450000X-0.325000X-0.450000X0.325000X-0.450000X0*%
G04 #@! TD*
G04 #@! TA.AperFunction,SMDPad,CuDef*
%ADD18RoundRect,0.250000X-0.337500X-0.475000X0.337500X-0.475000X0.337500X0.475000X-0.337500X0.475000X0*%
G04 #@! TD*
G04 #@! TA.AperFunction,ViaPad*
%ADD19C,0.600000*%
G04 #@! TD*
G04 #@! TA.AperFunction,ViaPad*
%ADD20C,0.800000*%
G04 #@! TD*
G04 #@! TA.AperFunction,Conductor*
%ADD21C,0.254000*%
G04 #@! TD*
G04 #@! TA.AperFunction,Conductor*
%ADD22C,0.127000*%
G04 #@! TD*
G04 #@! TA.AperFunction,Conductor*
%ADD23C,0.152400*%
G04 #@! TD*
G04 APERTURE END LIST*
D10*
X132080000Y-90155000D03*
X132080000Y-87615000D03*
X129540000Y-90155000D03*
X129540000Y-87615000D03*
X127000000Y-90155000D03*
X127000000Y-87615000D03*
X124460000Y-90155000D03*
X124460000Y-87615000D03*
X121920000Y-90155000D03*
X121920000Y-87615000D03*
X119380000Y-90155000D03*
X119380000Y-87615000D03*
X116840000Y-90155000D03*
X116840000Y-87615000D03*
X114300000Y-90155000D03*
X114300000Y-87615000D03*
X111760000Y-90155000D03*
X111760000Y-87615000D03*
X109220000Y-90155000D03*
X109220000Y-87615000D03*
X106680000Y-90155000D03*
X106680000Y-87615000D03*
X104140000Y-90155000D03*
X104140000Y-87615000D03*
X101600000Y-90155000D03*
D11*
X101600000Y-87615000D03*
D10*
X132080000Y-113045000D03*
X132080000Y-110505000D03*
X129540000Y-113045000D03*
X129540000Y-110505000D03*
X127000000Y-113045000D03*
X127000000Y-110505000D03*
X124460000Y-113045000D03*
X124460000Y-110505000D03*
X121920000Y-113045000D03*
X121920000Y-110505000D03*
X119380000Y-113045000D03*
X119380000Y-110505000D03*
X116840000Y-113045000D03*
X116840000Y-110505000D03*
X114300000Y-113045000D03*
X114300000Y-110505000D03*
X111760000Y-113045000D03*
X111760000Y-110505000D03*
X109220000Y-113045000D03*
X109220000Y-110505000D03*
X106680000Y-113045000D03*
X106680000Y-110505000D03*
X104140000Y-113045000D03*
X104140000Y-110505000D03*
X101600000Y-113045000D03*
D11*
X101600000Y-110505000D03*
D12*
X193040000Y-109195000D03*
X190500000Y-109195000D03*
X187960000Y-109195000D03*
X185420000Y-109195000D03*
X182880000Y-109195000D03*
X180340000Y-109195000D03*
X177800000Y-109195000D03*
X175260000Y-109195000D03*
X172720000Y-109195000D03*
X170180000Y-109195000D03*
X167640000Y-109195000D03*
X165100000Y-109195000D03*
X162560000Y-109195000D03*
X160020000Y-109195000D03*
X157480000Y-109195000D03*
X154940000Y-109195000D03*
X152400000Y-109195000D03*
X149860000Y-109195000D03*
X147320000Y-109195000D03*
D13*
X144780000Y-109195000D03*
D12*
X193040000Y-91440000D03*
X190500000Y-91440000D03*
X187960000Y-91440000D03*
X185420000Y-91440000D03*
X182880000Y-91440000D03*
X180340000Y-91440000D03*
X177800000Y-91440000D03*
X175260000Y-91440000D03*
X172720000Y-91440000D03*
X170180000Y-91440000D03*
X167640000Y-91440000D03*
X165100000Y-91440000D03*
X162560000Y-91440000D03*
X160020000Y-91440000D03*
X157480000Y-91440000D03*
X154940000Y-91440000D03*
X152400000Y-91440000D03*
X149860000Y-91440000D03*
X147320000Y-91440000D03*
D13*
X144780000Y-91440000D03*
D14*
X104205000Y-97155000D03*
X104205000Y-98425000D03*
X104205000Y-99695000D03*
X104205000Y-100965000D03*
X104205000Y-102235000D03*
X104205000Y-103505000D03*
X104205000Y-104775000D03*
X104205000Y-106045000D03*
X109155000Y-106045000D03*
X109155000Y-104775000D03*
X109155000Y-103505000D03*
X109155000Y-102235000D03*
X109155000Y-100965000D03*
X109155000Y-99695000D03*
X109155000Y-98425000D03*
X109155000Y-97155000D03*
D15*
X118602000Y-107339000D03*
X116602000Y-107339000D03*
X118602000Y-105307000D03*
X116602000Y-105307000D03*
X118602000Y-103275000D03*
X116602000Y-103275000D03*
X118602000Y-101243000D03*
X116602000Y-101243000D03*
X118602000Y-99211000D03*
X116602000Y-99211000D03*
X118602000Y-97179000D03*
X116602000Y-97179000D03*
X116602000Y-95147000D03*
X118602000Y-95147000D03*
X118602000Y-93091000D03*
X116602000Y-93091000D03*
D16*
X111506000Y-93250000D03*
X111506000Y-95250000D03*
D17*
X136135000Y-107823000D03*
X138185000Y-107823000D03*
X136135000Y-105664000D03*
X138185000Y-105664000D03*
X138185000Y-103505000D03*
X136135000Y-103505000D03*
X136135000Y-101346000D03*
X138185000Y-101346000D03*
X136135000Y-99187000D03*
X138185000Y-99187000D03*
X136135000Y-97028000D03*
X138185000Y-97028000D03*
X136135000Y-94869000D03*
X138185000Y-94869000D03*
X136135000Y-92710000D03*
X138185000Y-92710000D03*
D18*
X107717500Y-94960000D03*
X105642500Y-94960000D03*
D19*
X110236000Y-92837000D03*
X110871000Y-98425000D03*
D20*
X107569000Y-104775000D03*
D19*
X110871000Y-100965000D03*
X113156250Y-93853750D03*
D20*
X106712725Y-93956391D03*
D19*
X110871000Y-103378000D03*
X110871000Y-102235000D03*
X110617000Y-99695000D03*
D20*
X105664000Y-106045000D03*
X106680000Y-96012000D03*
X139192000Y-100121000D03*
D21*
X144780000Y-91440000D02*
X141478000Y-91440000D01*
X134193000Y-90597000D02*
X133425202Y-91364798D01*
X141478000Y-91440000D02*
X140635000Y-90597000D01*
X140635000Y-90597000D02*
X134193000Y-90597000D01*
X133425202Y-91364798D02*
X105349798Y-91364798D01*
X105349798Y-91364798D02*
X104140000Y-90155000D01*
D22*
X136695066Y-93727500D02*
X135634500Y-93727500D01*
D21*
X135929132Y-91248499D02*
X135305332Y-91872299D01*
D22*
X138745066Y-91692500D02*
X137624934Y-91692500D01*
D21*
X139889499Y-91248499D02*
X135929132Y-91248499D01*
D22*
X137027500Y-93395066D02*
X136695066Y-93727500D01*
X137624934Y-91692500D02*
X137027500Y-92289934D01*
X137027500Y-92289934D02*
X137027500Y-93395066D01*
X135255000Y-94107000D02*
X113409500Y-94107000D01*
X113409500Y-94107000D02*
X113156250Y-93853750D01*
X140780066Y-93727500D02*
X138745066Y-91692500D01*
X135634500Y-93727500D02*
X135255000Y-94107000D01*
D21*
X147320000Y-91440000D02*
X146089000Y-92671000D01*
D22*
X147572500Y-93727500D02*
X140780066Y-93727500D01*
X149860000Y-91440000D02*
X147572500Y-93727500D01*
D21*
X146089000Y-92671000D02*
X141312000Y-92671000D01*
X141312000Y-92671000D02*
X139889499Y-91248499D01*
X135305332Y-91872299D02*
X103317299Y-91872299D01*
X103317299Y-91872299D02*
X101600000Y-90155000D01*
D22*
X132080000Y-113045000D02*
X134998500Y-110126500D01*
X134998500Y-110126500D02*
X142349500Y-110126500D01*
X142349500Y-110126500D02*
X143281000Y-109195000D01*
X143281000Y-109195000D02*
X144780000Y-109195000D01*
D23*
X116602000Y-93091000D02*
X114173000Y-93091000D01*
X113411000Y-92329000D02*
X110744000Y-92329000D01*
X114173000Y-93091000D02*
X113411000Y-92329000D01*
X110744000Y-92329000D02*
X110236000Y-92837000D01*
X109155000Y-98425000D02*
X110871000Y-98425000D01*
D21*
X107717500Y-94960000D02*
X107717500Y-94255500D01*
X107717500Y-94255500D02*
X107418391Y-93956391D01*
X107418391Y-93956391D02*
X106712725Y-93956391D01*
X105642500Y-94960000D02*
X105642500Y-95863500D01*
X105791000Y-96012000D02*
X106680000Y-96012000D01*
X105642500Y-95863500D02*
X105791000Y-96012000D01*
D22*
X111259900Y-104020900D02*
X106814900Y-104020900D01*
X104205000Y-103505000D02*
X106299000Y-103505000D01*
X106299000Y-103505000D02*
X106814900Y-104020900D01*
X116602000Y-105307000D02*
X112546000Y-105307000D01*
X112546000Y-105307000D02*
X111259900Y-104020900D01*
X104205000Y-102235000D02*
X105918000Y-102235000D01*
X105918000Y-102235000D02*
X106518000Y-102835000D01*
X106518000Y-102835000D02*
X112360000Y-102835000D01*
X112360000Y-102835000D02*
X112800000Y-103275000D01*
X112800000Y-103275000D02*
X116602000Y-103275000D01*
D21*
X106680000Y-113045000D02*
X108057950Y-111667050D01*
X108057950Y-111667050D02*
X108057950Y-109874050D01*
X141485088Y-106807000D02*
X147472000Y-106807000D01*
X108057950Y-109874050D02*
X108966000Y-108966000D01*
X139326088Y-108966000D02*
X141485088Y-106807000D01*
X108966000Y-108966000D02*
X139326088Y-108966000D01*
X147472000Y-106807000D02*
X149860000Y-109195000D01*
D22*
X147320000Y-109195000D02*
X145948000Y-107823000D01*
X145948000Y-107823000D02*
X142494000Y-107823000D01*
X142494000Y-107823000D02*
X140808950Y-109508050D01*
X110216950Y-109508050D02*
X109220000Y-110505000D01*
X140808950Y-109508050D02*
X110216950Y-109508050D01*
X118602000Y-95147000D02*
X118626000Y-95123000D01*
X135833000Y-95123000D02*
X135857000Y-95147000D01*
X118626000Y-95123000D02*
X135833000Y-95123000D01*
D21*
X138185000Y-107823000D02*
X138185000Y-101128000D01*
X138185000Y-99114000D02*
X139192000Y-100121000D01*
X138185000Y-92710000D02*
X138185000Y-99114000D01*
X138185000Y-101128000D02*
X139192000Y-100121000D01*
D22*
X135128000Y-92710000D02*
X134874000Y-92964000D01*
X118602000Y-93091000D02*
X134747000Y-93091000D01*
X134747000Y-93091000D02*
X134874000Y-92964000D01*
X111334000Y-105492000D02*
X106127000Y-105492000D01*
D21*
X109155000Y-104775000D02*
X107569000Y-104775000D01*
D22*
X105410000Y-104775000D02*
X104205000Y-104775000D01*
X113181000Y-107339000D02*
X111334000Y-105492000D01*
X106127000Y-105492000D02*
X105410000Y-104775000D01*
X116602000Y-107339000D02*
X113181000Y-107339000D01*
D21*
X104205000Y-106045000D02*
X105664000Y-106045000D01*
D22*
X110744000Y-103505000D02*
X110871000Y-103378000D01*
X109155000Y-103505000D02*
X110744000Y-103505000D01*
X109155000Y-102235000D02*
X110871000Y-102235000D01*
X109155000Y-100965000D02*
X110871000Y-100965000D01*
X116602000Y-101243000D02*
X112752000Y-101243000D01*
X105791000Y-100965000D02*
X104205000Y-100965000D01*
X112752000Y-101243000D02*
X112395000Y-101600000D01*
X112395000Y-101600000D02*
X106426000Y-101600000D01*
X106426000Y-101600000D02*
X105791000Y-100965000D01*
X116602000Y-99211000D02*
X112752000Y-99211000D01*
X106807000Y-100330000D02*
X106172000Y-99695000D01*
X112752000Y-99211000D02*
X111633000Y-100330000D01*
X111633000Y-100330000D02*
X106807000Y-100330000D01*
X106172000Y-99695000D02*
X104205000Y-99695000D01*
X116602000Y-97179000D02*
X113387000Y-97179000D01*
X113387000Y-97179000D02*
X111506000Y-99060000D01*
X111506000Y-99060000D02*
X106934000Y-99060000D01*
X106299000Y-98425000D02*
X104205000Y-98425000D01*
X106934000Y-99060000D02*
X106299000Y-98425000D01*
X116602000Y-95147000D02*
X114911000Y-95147000D01*
X114911000Y-95147000D02*
X112268000Y-97790000D01*
X112268000Y-97790000D02*
X107188000Y-97790000D01*
X107188000Y-97790000D02*
X106553000Y-97155000D01*
X106553000Y-97155000D02*
X104205000Y-97155000D01*
X136135000Y-92710000D02*
X135128000Y-92710000D01*
X111506000Y-93250000D02*
X112552500Y-93250000D01*
X112552500Y-93250000D02*
X113156250Y-93853750D01*
X118602000Y-107339000D02*
X135651000Y-107339000D01*
X118602000Y-105307000D02*
X135778000Y-105307000D01*
X118602000Y-103275000D02*
X135905000Y-103275000D01*
X136135000Y-97028000D02*
X118753000Y-97028000D01*
X118602000Y-99211000D02*
X136111000Y-99211000D01*
X136135000Y-101346000D02*
X118705000Y-101346000D01*
X109155000Y-99695000D02*
X110617000Y-99695000D01*
D21*
X109155000Y-97155000D02*
X111125000Y-97155000D01*
X111125000Y-97155000D02*
X111506000Y-96774000D01*
X111506000Y-96774000D02*
X111506000Y-95250000D01*
X109155000Y-97155000D02*
X107823000Y-97155000D01*
X107823000Y-97155000D02*
X107696000Y-97028000D01*
X107696000Y-97028000D02*
X107696000Y-94981500D01*
X106680000Y-113045000D02*
X101600000Y-113045000D01*
M02*
